<svg width="467" height="133" viewBox="0 0 467 133" fill="none" xmlns="http://www.w3.org/2000/svg">
<path d="M47.2637 131.869C46.6895 130.413 46.0498 128.335 45.8404 125.789C44.9145 119.447 49.6019 109.081 53.7395 104.667" stroke="url(#paint0_linear_524_1719)" stroke-width="2.79069"/>
<path d="M36.2677 10.4442C35.9036 8.01521 34.5539 4.02307 31.6677 1.92609C30.9329 2.87929 29.8203 4.28165 28.397 5.91895C25.3579 9.41501 22.8835 11.7451 21.4853 13.0282C18.1415 16.0973 14.3104 19.6134 11.2826 23.5753C4.09929 32.5066 -0.575 45.3827 2.2129 56.9424C2.94656 60.2439 6.79179 69.5432 11.6095 75.3246C15.3674 79.8347 15.3692 80.6271 25.075 89.1405C27.4452 91.2193 34.1596 97.8216 36.2677 102.449" stroke="url(#paint1_linear_524_1719)" stroke-width="2.79069"/>
<path d="M55.7751 14.5108C59.6717 18.2433 67.23 21.947 71.9418 29.4669C80.153 42.4899 78.6798 56.7906 69.1008 68.627C65.4165 73.3083 61.0152 77.3386 56.7578 81.521C50.9108 87.1966 45.2531 93.3221 39.915 99.3726" stroke="url(#paint2_linear_524_1719)" stroke-width="2.79069"/>
<path d="M15.1157 89.5101C19.9684 93.5554 25.5908 97.7326 29.3621 102.632C34.2578 109.236 38.5076 116.499 42.6255 123.707" stroke="url(#paint3_linear_524_1719)" stroke-width="2.79069"/>
<path d="M39.2716 114.201C38.7993 108.327 39.5075 103.388 39.8771 99.7356C40.4367 94.2087 40.8856 90.1864 43.3855 85.7636C45.8847 81.7308 54.7053 71.635 56.2218 69.4907C65.2114 56.6549 67.688 38.3905 59.9247 21.4931C57.7448 17.0951 49.9972 5.71335 47.431 2.15181C38.6704 7.42956 24.5318 19.7442 19.181 32.0955C11.1796 51.8838 17.93 69.7591 27.0797 79.8465C27.532 80.2841 28.7411 81.4086 30.0424 83.216C30.6359 84.0409 32.846 87.2264 34.1564 92.4208C34.6508 94.38 34.4196 94.2571 34.9792 97.188C36.2201 103.674 38.5761 108.425 39.434 115.049C39.434 115.049 39.6244 116.116 39.8771 117.242C40.5434 120.208 46.0813 130.522 47.1565 131.926" stroke="url(#paint4_linear_524_1719)" stroke-width="2.79069"/>
<mask id="mask0_524_1719" style="mask-type:luminance" maskUnits="userSpaceOnUse" x="117" y="35" width="16" height="38">
<path d="M130.416 35.2272C129.496 35.3037 128.577 35.3037 127.58 35.3037C126.508 35.3037 125.435 35.3037 124.438 35.2272C123.365 35.1506 122.446 35.1506 121.526 35.1506C121.449 35.1506 121.449 35.2271 121.449 35.3802C121.449 35.6099 121.449 35.6864 121.526 35.6864C122.599 35.6864 123.365 35.763 123.902 35.9161C124.438 36.0692 124.745 36.3754 124.898 36.7582C125.128 37.2175 125.205 37.8299 125.205 38.6719V65.4644C125.205 67.8375 125.051 69.445 124.745 70.4402C124.438 71.3588 123.979 71.8946 123.442 71.8946C123.059 71.8946 122.829 71.665 122.599 71.2822C122.446 70.8995 122.216 70.4402 121.986 69.9043C121.756 69.3685 121.449 68.9092 121.066 68.5264C120.76 68.1437 120.223 67.9906 119.534 67.9906C118.69 67.9906 118.077 68.2202 117.771 68.6795C117.388 69.1388 117.234 69.6746 117.234 70.2105C117.234 71.0526 117.618 71.665 118.307 72.1243C118.997 72.5836 119.917 72.8132 120.99 72.8132C123.825 72.8132 126.048 71.8946 127.657 70.0574C129.267 68.2202 130.11 65.6941 130.11 62.479V38.7484C130.11 37.9064 130.186 37.294 130.263 36.8347C130.416 36.4519 130.646 36.1457 131.029 35.9161C131.412 35.763 131.949 35.6864 132.639 35.6864C132.715 35.6864 132.792 35.6099 132.792 35.3802C132.792 35.2271 132.715 35.1506 132.639 35.1506C132.025 35.1506 131.259 35.1506 130.416 35.2272Z" fill="white"/>
</mask>
<g mask="url(#mask0_524_1719)">
<path d="M-31.749 241.525V-409.452H619.974V241.525H-31.749Z" fill="url(#paint5_linear_524_1719)"/>
</g>
<mask id="mask1_524_1719" style="mask-type:luminance" maskUnits="userSpaceOnUse" x="134" y="34" width="32" height="29">
<path d="M149.729 34.8448C149.499 34.8448 149.346 34.9213 149.346 34.9979L139.919 55.6664C139.229 57.2739 138.54 58.5753 138.003 59.4173C137.39 60.3359 136.854 60.9484 136.317 61.2546C135.704 61.5608 135.014 61.7904 134.248 61.7904C134.171 61.7904 134.095 61.867 134.095 62.0201C134.095 62.1732 134.171 62.2497 134.248 62.2497C135.244 62.2497 136.087 62.2497 136.777 62.1731C137.467 62.1731 138.386 62.0966 139.459 62.0966C140.609 62.0966 141.529 62.1731 142.218 62.1731C142.908 62.2497 143.751 62.2497 144.594 62.2497C144.747 62.2497 144.824 62.1732 144.824 62.0201C144.824 61.867 144.747 61.7904 144.594 61.7904C142.985 61.7904 141.835 61.2545 141.069 60.2594C140.302 59.2642 140.302 57.8864 141.069 56.1257L142.831 52.3747H153.484L156.396 58.1926C157.163 59.647 157.393 60.5656 157.239 61.0249C157.009 61.5607 156.32 61.7904 155.17 61.7904C155.017 61.7904 155.017 61.867 155.017 62.0201C155.017 62.1732 155.017 62.2497 155.17 62.2497C156.09 62.2497 156.856 62.2497 157.623 62.1731C158.312 62.1731 159.155 62.0966 160.152 62.0966C160.995 62.0966 161.914 62.1731 162.911 62.1731C163.83 62.2497 164.75 62.2497 165.593 62.2497C165.746 62.2497 165.823 62.1732 165.823 62.0201C165.823 61.867 165.746 61.7904 165.593 61.7904C165.133 61.7904 164.673 61.5608 164.213 61.2546C163.754 60.9484 163.294 60.336 162.757 59.5705C162.297 58.805 161.684 57.7332 160.995 56.3553L150.112 34.9979C150.112 34.8448 149.959 34.8448 149.805 34.8448H149.729ZM147.813 41.275L152.871 51.1499H143.368L147.813 41.275Z" fill="white"/>
</mask>
<g mask="url(#mask1_524_1719)">
<path d="M-31.749 241.525V-409.452H619.974V241.525H-31.749Z" fill="url(#paint6_linear_524_1719)"/>
</g>
<mask id="mask2_524_1719" style="mask-type:luminance" maskUnits="userSpaceOnUse" x="168" y="34" width="18" height="29">
<path d="M173.946 35.3805C172.566 35.9164 171.417 36.6819 170.497 37.677C169.577 38.7487 169.118 40.0501 169.118 41.6576C169.118 42.959 169.424 44.0307 169.961 44.9493C170.574 45.8679 171.34 46.6334 172.26 47.3989C173.179 48.0878 174.099 48.7768 175.172 49.4657C176.168 50.0781 177.165 50.7671 178.161 51.5326C179.08 52.2981 179.923 53.1401 180.46 54.1353C181.073 55.0539 181.38 56.2021 181.38 57.58C181.38 58.6517 181.226 59.4938 180.843 60.1062C180.46 60.7186 179.923 61.1779 179.31 61.4075C178.697 61.6372 178.084 61.7138 177.394 61.7138C176.398 61.7138 175.478 61.4841 174.635 60.9483C173.792 60.4124 173.103 59.7234 172.413 58.8814C171.8 58.0393 171.187 57.1208 170.65 56.1256C170.19 55.1305 169.654 54.1353 169.271 53.2933C169.194 53.1402 169.118 53.0636 168.964 53.1401C168.811 53.1401 168.734 53.2167 168.734 53.3698L168.888 60.2593C168.888 60.4889 168.964 60.7186 169.041 60.7951C169.118 60.8717 169.194 60.9483 169.347 61.1014C169.654 61.331 170.267 61.6372 171.034 61.8669C171.8 62.1731 172.643 62.4027 173.563 62.5558C174.482 62.7089 175.402 62.7855 176.245 62.7855C178.084 62.7855 179.694 62.4792 181.073 61.7903C182.453 61.1779 183.602 60.2593 184.445 59.111C185.288 57.9628 185.671 56.5849 185.671 55.0539C185.671 53.676 185.365 52.5278 184.675 51.5326C184.062 50.5375 183.219 49.6189 182.223 48.8534C181.226 48.0879 180.153 47.3223 179.08 46.6334C178.084 46.021 177.088 45.3321 176.168 44.6431C175.249 44.0307 174.559 43.2652 173.946 42.4231C173.409 41.5811 173.103 40.6625 173.103 39.5142C173.103 38.6722 173.256 37.9067 173.639 37.3708C174.022 36.7584 174.482 36.3757 175.095 36.0695C175.708 35.7633 176.322 35.6102 177.088 35.6102C178.237 35.6102 179.234 35.9164 180 36.6053C180.843 37.2177 181.533 37.9067 181.993 38.8253C182.529 39.6673 182.989 40.5094 183.296 41.2749C183.602 42.1169 183.832 42.6528 183.985 43.0355C184.062 43.1121 184.139 43.1121 184.292 43.1121C184.445 43.0355 184.522 42.959 184.522 42.8825V36.5288C184.522 36.2991 184.445 36.1461 184.368 35.993C184.292 35.9164 184.139 35.7633 183.832 35.6102C183.219 35.3805 182.376 35.1509 181.38 34.9978C180.307 34.7681 179.31 34.6916 178.237 34.6916C176.781 34.6916 175.325 34.9212 173.946 35.3805Z" fill="white"/>
</mask>
<g mask="url(#mask2_524_1719)">
<path d="M-31.7495 241.525V-409.452H619.973V241.525H-31.7495Z" fill="url(#paint7_linear_524_1719)"/>
</g>
<mask id="mask3_524_1719" style="mask-type:luminance" maskUnits="userSpaceOnUse" x="199" y="35" width="36" height="28">
<path d="M231.884 35.2272C231.271 35.2272 230.505 35.2272 229.585 35.2272C229.126 35.2272 228.742 35.2272 228.436 35.2272C228.129 35.1506 227.823 35.1506 227.516 35.1506C227.21 35.1506 226.903 35.2271 226.75 35.3802C226.52 35.5333 226.367 35.8395 226.213 36.2223L217.936 55.1302L208.51 37.4471C207.974 36.4519 207.667 35.9161 207.437 35.6099C207.207 35.3037 206.901 35.1506 206.441 35.1506C206.134 35.1506 205.751 35.1506 205.138 35.2272C204.601 35.2272 203.912 35.2272 203.145 35.2272C202.686 35.2272 202.149 35.2272 201.459 35.2272C200.846 35.1506 200.156 35.1506 199.543 35.1506C199.467 35.1506 199.467 35.2271 199.467 35.3802C199.467 35.6099 199.467 35.6864 199.543 35.6864C201.076 35.6864 202.456 36.6816 203.529 38.7484V38.825L203.145 56.7377C203.145 58.2687 202.762 59.4935 202.072 60.4121C201.383 61.3307 200.463 61.79 199.237 61.79C199.16 61.79 199.16 61.8666 199.16 62.0197C199.16 62.1728 199.16 62.2493 199.237 62.2493C199.927 62.2493 200.616 62.2493 201.383 62.2493C202.072 62.1728 202.915 62.1727 203.835 62.1727C204.678 62.1727 205.444 62.1728 206.134 62.2493C206.824 62.2493 207.437 62.2493 208.05 62.2493C208.203 62.2493 208.203 62.1728 208.203 62.0197C208.203 61.8666 208.203 61.79 208.05 61.79C206.901 61.79 205.981 61.3307 205.291 60.4121C204.678 59.4935 204.372 58.2687 204.372 56.7377L204.755 41.1215L215.714 61.9431C215.791 62.0962 215.944 62.1727 216.097 62.1727C216.327 62.1727 216.404 62.0962 216.404 61.9431L225.37 41.0449L226.29 58.8046C226.367 60.0294 226.213 60.7948 225.83 61.1776C225.447 61.5603 224.604 61.79 223.224 61.79C223.148 61.79 223.071 61.8666 223.071 62.0197C223.071 62.1728 223.148 62.2493 223.224 62.2493C223.991 62.2493 224.834 62.2493 225.753 62.2493C226.673 62.1728 227.669 62.1727 228.742 62.1727C229.739 62.1727 230.735 62.1728 231.731 62.2493C232.651 62.2493 233.494 62.2493 234.26 62.2493C234.337 62.2493 234.337 62.1728 234.337 62.0197C234.337 61.8666 234.337 61.79 234.26 61.79C233.417 61.79 232.728 61.7134 232.344 61.5603C231.884 61.4072 231.578 61.101 231.425 60.6417C231.271 60.259 231.195 59.5701 231.118 58.8046L230.045 39.0547C230.045 37.9064 230.275 37.0643 230.888 36.5285C231.578 35.9161 232.498 35.6864 233.877 35.6864C233.954 35.6864 233.954 35.6099 233.954 35.3802C233.954 35.2271 233.954 35.1506 233.877 35.1506C233.187 35.1506 232.574 35.1506 231.884 35.2272Z" fill="white"/>
</mask>
<g mask="url(#mask3_524_1719)">
<path d="M-31.749 241.525V-409.452H619.974V241.525H-31.749Z" fill="url(#paint8_linear_524_1719)"/>
</g>
<mask id="mask4_524_1719" style="mask-type:luminance" maskUnits="userSpaceOnUse" x="236" y="35" width="22" height="28">
<path d="M237.096 35.1506C237.019 35.1506 236.942 35.2271 236.942 35.3802C236.942 35.6099 237.019 35.6864 237.096 35.6864C238.015 35.6864 238.705 35.763 239.088 35.9161C239.548 36.0692 239.855 36.3754 240.008 36.7582C240.085 37.2175 240.161 37.8299 240.161 38.6719V58.8046C240.161 59.5701 240.085 60.259 240.008 60.6417C239.855 61.101 239.548 61.4072 239.088 61.5603C238.705 61.7134 238.015 61.79 237.096 61.79C237.019 61.79 236.942 61.8666 236.942 62.0197C236.942 62.1728 237.019 62.2493 237.096 62.2493H256.332C256.715 62.2493 256.945 62.0962 256.945 61.6369C256.945 60.6418 257.021 59.5701 257.098 58.4218C257.175 57.2736 257.251 56.2784 257.405 55.4363C257.405 55.4363 257.328 55.3598 257.175 55.2832C257.021 55.2832 256.868 55.2833 256.868 55.3598C256.255 57.3501 255.259 58.728 253.879 59.6466C252.5 60.6417 250.737 61.1011 248.438 61.1011H246.982C246.522 61.1011 246.139 60.9479 245.909 60.7948C245.602 60.6417 245.373 60.3356 245.219 59.9528C245.066 59.5701 244.989 59.1108 244.989 58.5749V48.7765H248.591C250.354 48.7765 251.657 49.1593 252.5 49.7717C253.419 50.4606 253.879 51.4557 253.879 52.604C253.879 52.6805 253.956 52.6806 254.109 52.6806C254.339 52.6806 254.416 52.6805 254.416 52.604C254.416 51.7619 254.416 50.9964 254.339 50.3075C254.263 49.6185 254.263 48.9296 254.263 48.1641C254.263 47.6282 254.263 47.0158 254.263 46.48C254.339 45.9441 254.339 45.2552 254.339 44.2601C254.339 44.1835 254.263 44.1069 254.109 44.1069C253.879 44.1069 253.803 44.1835 253.803 44.2601C253.803 45.2552 253.419 46.0973 252.5 46.7097C251.657 47.2455 250.354 47.5517 248.591 47.5517H244.989V38.7484C244.989 38.2126 245.066 37.7533 245.296 37.4471C245.449 37.0643 245.756 36.8347 246.139 36.6816C246.445 36.5285 246.982 36.4519 247.518 36.4519H248.821C250.661 36.4519 252.117 36.8347 253.19 37.6002C254.263 38.4422 255.106 39.6671 255.565 41.3512C255.565 41.4277 255.719 41.5042 255.872 41.4277C255.949 41.4277 256.025 41.3512 256.025 41.3512L255.949 35.5333C255.949 35.3037 255.795 35.1506 255.565 35.1506H237.096Z" fill="white"/>
</mask>
<g mask="url(#mask4_524_1719)">
<path d="M-31.7495 241.525V-409.452H619.973V241.525H-31.7495Z" fill="url(#paint9_linear_524_1719)"/>
</g>
<mask id="mask5_524_1719" style="mask-type:luminance" maskUnits="userSpaceOnUse" x="261" y="33" width="25" height="30">
<path d="M285.147 34.0792C284.994 34.5385 284.611 34.8447 284.074 34.9978C283.538 35.0743 282.771 35.1509 281.699 35.1509C280.626 35.1509 279.399 35.1509 278.173 35.2274C277.024 35.304 275.338 35.304 273.345 35.304C270.05 35.304 267.137 35.2274 264.608 35.1509C264.378 35.1509 263.995 35.1509 263.612 35.0743C263.229 35.0743 262.922 34.9978 262.616 34.8447C262.309 34.6916 262.156 34.4619 262.156 34.2323C262.156 34.0792 262.079 34.0026 261.926 34.0026C261.773 34.0026 261.619 34.0792 261.619 34.2323C261.619 34.6916 261.619 35.3805 261.619 36.2226C261.543 36.9881 261.466 37.8301 261.39 38.7487C261.313 39.5908 261.313 40.3563 261.236 41.1218C261.16 41.8873 261.083 42.4231 261.083 42.8059C261.083 42.959 261.083 42.959 261.236 42.959C261.39 43.0355 261.466 42.959 261.543 42.8825C262.233 40.7391 263.229 39.055 264.455 37.9067C265.681 36.7584 267.214 36.146 268.977 36.146C269.513 36.146 269.896 36.2226 270.203 36.3757C270.509 36.5288 270.663 36.835 270.816 37.1412C270.893 37.5239 270.969 38.0598 270.969 38.6722V58.8049C270.969 59.5704 270.893 60.2593 270.663 60.642C270.509 61.1013 270.126 61.4075 269.59 61.5606C269.053 61.7137 268.287 61.7903 267.291 61.7903C267.214 61.7903 267.137 61.8669 267.137 62.02C267.137 62.1731 267.214 62.2496 267.291 62.2496C268.134 62.2496 269.053 62.2496 270.05 62.2496C271.123 62.1731 272.195 62.173 273.345 62.173C274.571 62.173 275.644 62.1731 276.717 62.2496C277.713 62.2496 278.633 62.2496 279.399 62.2496C279.476 62.2496 279.553 62.1731 279.553 62.02C279.553 61.8669 279.476 61.7903 279.399 61.7903C278.403 61.7903 277.637 61.7137 277.1 61.5606C276.564 61.4075 276.257 61.1013 276.104 60.642C275.874 60.2593 275.797 59.5704 275.797 58.8049V38.7487C275.797 38.0598 275.874 37.6005 275.951 37.2177C276.104 36.835 276.257 36.5288 276.564 36.3757C276.87 36.2226 277.33 36.146 277.943 36.146C279.629 36.146 281.085 36.6819 282.235 37.7536C283.461 38.9018 284.304 40.5859 284.764 42.8059C284.764 42.959 284.841 42.959 284.994 42.959C285.147 42.959 285.224 42.959 285.224 42.8059C285.224 42.4997 285.224 41.8873 285.224 41.1218C285.301 40.3563 285.301 39.5142 285.377 38.5956C285.377 37.677 285.454 36.835 285.454 35.9929C285.53 35.1509 285.607 34.5385 285.607 34.0792C285.607 33.9261 285.53 33.9261 285.377 33.9261C285.224 33.9261 285.147 33.9261 285.147 34.0792Z" fill="white"/>
</mask>
<g mask="url(#mask5_524_1719)">
<path d="M-31.7495 241.525V-409.452H619.973V241.525H-31.7495Z" fill="url(#paint10_linear_524_1719)"/>
</g>
<mask id="mask6_524_1719" style="mask-type:luminance" maskUnits="userSpaceOnUse" x="283" y="34" width="33" height="29">
<path d="M299.479 34.8448C299.249 34.8448 299.173 34.9213 299.096 34.9979L289.67 55.6664C288.98 57.2739 288.29 58.5753 287.754 59.4173C287.217 60.3359 286.604 60.9484 286.068 61.2546C285.455 61.5608 284.842 61.7904 283.998 61.7904C283.922 61.7904 283.845 61.867 283.845 62.0201C283.845 62.1732 283.922 62.2497 283.998 62.2497C284.995 62.2497 285.838 62.2497 286.528 62.1731C287.217 62.1731 288.137 62.0966 289.21 62.0966C290.359 62.0966 291.279 62.1731 291.969 62.1731C292.735 62.2497 293.502 62.2497 294.345 62.2497C294.498 62.2497 294.575 62.1732 294.575 62.0201C294.575 61.867 294.498 61.7904 294.345 61.7904C292.735 61.7904 291.586 61.2545 290.819 60.2594C290.053 59.2642 290.053 57.8864 290.819 56.1257L292.582 52.3747H303.235L306.223 58.1926C306.913 59.647 307.22 60.5656 306.99 61.0249C306.837 61.5607 306.147 61.7904 304.921 61.7904C304.844 61.7904 304.767 61.867 304.767 62.0201C304.767 62.1732 304.844 62.2497 304.921 62.2497C305.84 62.2497 306.607 62.2497 307.373 62.1731C308.063 62.1731 308.906 62.0966 309.902 62.0966C310.822 62.0966 311.665 62.1731 312.661 62.1731C313.581 62.2497 314.5 62.2497 315.343 62.2497C315.497 62.2497 315.573 62.1732 315.573 62.0201C315.573 61.867 315.497 61.7904 315.343 61.7904C314.884 61.7904 314.424 61.5608 313.964 61.2546C313.504 60.9484 313.044 60.336 312.584 59.5705C312.048 58.805 311.435 57.7332 310.745 56.3553L299.863 34.9979C299.863 34.8448 299.786 34.8448 299.556 34.8448C299.556 34.8448 299.556 34.8448 299.479 34.8448ZM297.563 41.275L302.621 51.1499H293.118L297.563 41.275Z" fill="white"/>
</mask>
<g mask="url(#mask6_524_1719)">
<path d="M-31.749 241.525V-409.452H619.974V241.525H-31.749Z" fill="url(#paint11_linear_524_1719)"/>
</g>
<mask id="mask7_524_1719" style="mask-type:luminance" maskUnits="userSpaceOnUse" x="316" y="35" width="23" height="28">
<path d="M325.152 35.2272C324.232 35.3037 323.236 35.3037 322.163 35.3037C321.09 35.3037 320.094 35.3037 319.097 35.2272C318.178 35.1506 317.335 35.1506 316.645 35.1506C316.568 35.1506 316.568 35.2271 316.568 35.3802C316.568 35.6099 316.568 35.6864 316.645 35.6864C317.488 35.6864 318.178 35.763 318.638 35.9161C319.021 36.0692 319.327 36.3754 319.481 36.7582C319.634 37.2175 319.711 37.8299 319.711 38.6719V58.8046C319.711 59.5701 319.634 60.259 319.481 60.6417C319.327 61.101 319.021 61.4072 318.638 61.5603C318.178 61.7134 317.488 61.79 316.645 61.79C316.568 61.79 316.568 61.8666 316.568 62.0197C316.568 62.1728 316.568 62.2493 316.645 62.2493H337.107C337.567 62.2493 337.797 62.0962 337.797 61.6369C337.797 60.4887 337.797 59.2639 337.874 57.886C338.027 56.5846 338.104 55.4364 338.18 54.4412C338.18 54.3647 338.104 54.2881 337.95 54.2881C337.797 54.2881 337.72 54.2881 337.72 54.3647C337.107 56.4315 336.034 58.039 334.425 59.2638C332.739 60.4886 330.746 61.1011 328.524 61.1011H327.068C326.378 61.1011 325.842 61.0245 325.458 60.8714C325.075 60.7949 324.845 60.5652 324.769 60.1825C324.615 59.8763 324.539 59.3404 324.539 58.5749V38.7484C324.539 37.9064 324.615 37.2174 324.769 36.8347C324.922 36.3754 325.228 36.0692 325.688 35.9161C326.148 35.763 326.761 35.6864 327.681 35.6864C327.757 35.6864 327.757 35.6099 327.757 35.3802C327.757 35.2271 327.757 35.1506 327.681 35.1506C326.914 35.1506 326.071 35.1506 325.152 35.2272Z" fill="white"/>
</mask>
<g mask="url(#mask7_524_1719)">
<path d="M-31.7495 241.525V-409.452H619.973V241.525H-31.7495Z" fill="url(#paint12_linear_524_1719)"/>
</g>
<mask id="mask8_524_1719" style="mask-type:luminance" maskUnits="userSpaceOnUse" x="351" y="34" width="29" height="29">
<path d="M361.478 35.6867C359.409 36.4522 357.647 37.3709 356.114 38.6722C354.581 39.897 353.355 41.428 352.512 43.1121C351.745 44.8728 351.286 46.7865 351.286 48.9299C351.286 50.8436 351.669 52.6043 352.359 54.2884C353.125 55.9725 354.121 57.4269 355.577 58.7283C356.957 60.0296 358.643 61.0248 360.635 61.7138C362.628 62.4793 364.927 62.7855 367.456 62.7855C369.066 62.7855 370.752 62.7089 372.514 62.4793C374.277 62.2496 375.963 61.9434 377.496 61.5606C377.726 61.5606 377.879 61.4841 377.956 61.4075C377.956 61.331 378.032 61.2545 378.032 61.1014C378.032 60.8717 377.956 60.642 377.956 60.4124C377.879 60.1827 377.879 59.8 377.802 59.3407C377.726 58.8814 377.726 58.1925 377.726 57.2739C377.726 55.7429 377.726 54.5946 377.802 53.8291C377.879 53.1402 378.032 52.6809 378.262 52.4512C378.492 52.2216 378.799 52.145 379.335 52.145C379.488 52.145 379.488 52.0684 379.488 51.8388C379.488 51.6857 379.412 51.5326 379.335 51.5326C377.496 51.6857 375.81 51.6857 374.2 51.6857C372.591 51.6857 370.752 51.6091 368.682 51.456C368.529 51.456 368.529 51.6091 368.529 51.8388C368.529 52.0684 368.606 52.145 368.759 52.145C370.139 52.145 371.135 52.2981 371.748 52.4512C372.284 52.6809 372.668 53.1401 372.898 53.7525C373.051 54.4415 373.127 55.4366 373.127 56.8145C373.127 58.269 372.974 59.4173 372.668 60.1828C372.361 60.8717 371.825 61.4076 371.211 61.6372C370.522 61.9434 369.602 62.0965 368.529 62.0965C366.766 62.0965 365.234 61.7137 363.778 61.0248C362.321 60.3358 361.019 59.4172 359.946 58.1159C358.873 56.8911 358.03 55.3601 357.417 53.676C356.88 51.9919 356.574 50.0781 356.574 48.0113C356.574 45.4086 357.033 43.1887 357.876 41.3515C358.796 39.5143 360.022 38.0598 361.555 37.0646C363.011 36.0695 364.697 35.6102 366.613 35.6102C368.069 35.6102 369.372 35.8398 370.522 36.4522C371.595 36.9881 372.591 37.677 373.434 38.4425C374.2 39.208 374.89 40.0501 375.35 40.8921C375.886 41.6576 376.27 42.3466 376.423 42.959C376.499 43.0355 376.576 43.1121 376.729 43.0355C376.883 43.0355 376.959 42.959 376.959 42.8825L376.423 36.835C376.346 36.4522 376.346 36.2226 376.27 36.146C376.27 36.0695 376.04 35.9929 375.733 35.8398C374.89 35.4571 373.741 35.1509 372.361 34.9978C370.982 34.7681 369.602 34.6916 368.223 34.6916C365.77 34.6916 363.548 34.9978 361.478 35.6867Z" fill="white"/>
</mask>
<g mask="url(#mask8_524_1719)">
<path d="M-31.749 241.525V-409.452H619.974V241.525H-31.749Z" fill="url(#paint13_linear_524_1719)"/>
</g>
<mask id="mask9_524_1719" style="mask-type:luminance" maskUnits="userSpaceOnUse" x="383" y="34" width="30" height="29">
<path d="M392.976 35.5336C391.213 36.146 389.527 36.9881 388.071 38.1363C386.539 39.3611 385.312 40.8156 384.393 42.5762C383.473 44.3369 383.013 46.4037 383.013 48.7768C383.013 50.614 383.396 52.4512 384.009 54.1353C384.699 55.8194 385.619 57.3504 386.768 58.6518C387.995 59.9531 389.451 60.9483 391.137 61.7138C392.823 62.4027 394.739 62.7855 396.808 62.7855C398.877 62.7855 400.793 62.4027 402.632 61.7138C404.472 60.9483 406.158 59.9531 407.537 58.6518C408.917 57.3504 410.066 55.8194 410.833 54.0588C411.676 52.3746 412.059 50.4609 412.059 48.4706C412.059 46.71 411.752 45.0258 411.139 43.3417C410.526 41.7342 409.606 40.2032 408.457 38.9018C407.231 37.6005 405.775 36.6053 404.089 35.8398C402.403 35.0743 400.487 34.6916 398.341 34.6916C396.578 34.6916 394.815 34.9978 392.976 35.5336ZM394.356 60.642C393.129 59.9531 392.056 58.9579 391.213 57.58C390.294 56.2787 389.604 54.7477 389.144 52.987C388.608 51.2264 388.378 49.2361 388.378 47.1692C388.378 43.5714 389.068 40.8156 390.524 38.8253C391.903 36.835 393.972 35.8398 396.578 35.8398C398.724 35.8398 400.563 36.4522 402.019 37.677C403.552 38.8253 404.702 40.5094 405.545 42.5762C406.311 44.6431 406.694 47.0161 406.694 49.6954C406.694 52.2981 406.388 54.4415 405.621 56.2787C404.855 58.0394 403.859 59.4173 402.632 60.3359C401.33 61.2545 399.873 61.7138 398.264 61.7138C396.808 61.7138 395.505 61.331 394.356 60.642Z" fill="white"/>
</mask>
<g mask="url(#mask9_524_1719)">
<path d="M-31.751 241.525V-409.452H619.972V241.525H-31.751Z" fill="url(#paint14_linear_524_1719)"/>
</g>
<mask id="mask10_524_1719" style="mask-type:luminance" maskUnits="userSpaceOnUse" x="415" y="35" width="23" height="28">
<path d="M424.091 35.2272C423.172 35.3037 422.099 35.3037 421.026 35.3037C419.953 35.3037 418.957 35.3037 418.037 35.2272C417.041 35.1506 416.198 35.1506 415.508 35.1506C415.431 35.1506 415.431 35.2271 415.431 35.3802C415.431 35.6099 415.431 35.6864 415.508 35.6864C416.427 35.6864 417.041 35.763 417.5 35.9161C417.96 36.0692 418.267 36.3754 418.42 36.7582C418.573 37.2175 418.65 37.8299 418.65 38.6719V58.8046C418.65 59.5701 418.573 60.259 418.42 60.6417C418.267 61.101 417.96 61.4072 417.5 61.5603C417.041 61.7134 416.427 61.79 415.508 61.79C415.431 61.79 415.431 61.8666 415.431 62.0197C415.431 62.1728 415.431 62.2493 415.508 62.2493H436.047C436.43 62.2493 436.66 62.0962 436.66 61.6369C436.66 60.4887 436.736 59.2639 436.813 57.886C436.89 56.5846 436.966 55.4364 437.043 54.4412C437.043 54.3647 436.966 54.2881 436.813 54.2881C436.66 54.2881 436.583 54.2881 436.583 54.3647C436.047 56.4315 434.897 58.039 433.288 59.2638C431.602 60.4886 429.686 61.1011 427.387 61.1011H425.931C425.241 61.1011 424.704 61.0245 424.321 60.8714C424.015 60.7949 423.708 60.5652 423.631 60.1825C423.478 59.8763 423.478 59.3404 423.478 58.5749V38.7484C423.478 37.9064 423.555 37.2174 423.708 36.8347C423.785 36.3754 424.091 36.0692 424.551 35.9161C425.011 35.763 425.701 35.6864 426.544 35.6864C426.62 35.6864 426.697 35.6099 426.697 35.3802C426.697 35.2271 426.62 35.1506 426.544 35.1506C425.777 35.1506 425.011 35.1506 424.091 35.2272Z" fill="white"/>
</mask>
<g mask="url(#mask10_524_1719)">
<path d="M-31.7495 241.525V-409.452H619.973V241.525H-31.7495Z" fill="url(#paint15_linear_524_1719)"/>
</g>
<mask id="mask11_524_1719" style="mask-type:luminance" maskUnits="userSpaceOnUse" x="439" y="35" width="28" height="28">
<path d="M448.233 35.1508C447.006 35.2274 445.857 35.3039 444.784 35.3039C443.711 35.3039 442.715 35.3039 441.795 35.2274C440.875 35.1508 440.032 35.1508 439.266 35.1508C439.189 35.1508 439.113 35.2274 439.113 35.3805C439.113 35.6101 439.189 35.6867 439.266 35.6867C440.109 35.6867 440.799 35.7632 441.259 35.9163C441.718 36.0694 442.025 36.3756 442.102 36.7584C442.255 37.2177 442.332 37.8301 442.332 38.6721V58.8048C442.332 59.5703 442.255 60.2592 442.102 60.642C441.948 61.1013 441.642 61.4075 441.182 61.5606C440.722 61.7137 440.109 61.7902 439.189 61.7902C439.113 61.7902 439.113 61.8668 439.113 62.0199C439.113 62.173 439.113 62.2496 439.189 62.2496C439.956 62.2496 440.799 62.2496 441.718 62.2496C442.715 62.173 443.711 62.173 444.707 62.173C445.934 62.173 447.16 62.2495 448.539 62.3261C449.995 62.4026 451.145 62.4792 452.065 62.4792C453.98 62.4792 455.82 62.0965 457.506 61.4841C459.269 60.7951 460.801 59.8765 462.104 58.6517C463.484 57.3503 464.48 55.8959 465.246 54.1352C466.013 52.3746 466.396 50.4609 466.396 48.2409C466.396 45.7913 465.783 43.5713 464.48 41.5045C463.254 39.5142 461.491 37.9832 459.269 36.8349C457.046 35.6867 454.44 35.0743 451.451 35.0743C450.532 35.0743 449.459 35.0743 448.233 35.1508ZM448.003 60.642C447.466 60.1827 447.16 59.3406 447.16 58.2689V38.7487C447.16 37.6004 447.543 36.8349 448.233 36.5287C448.999 36.2225 450.225 35.9929 451.835 35.9929C453.751 35.9929 455.36 36.6053 456.739 37.7535C458.119 38.9783 459.192 40.5093 459.882 42.4996C460.648 44.5665 461.031 46.7864 461.031 49.236C461.031 51.8387 460.648 54.0587 459.805 55.8959C459.039 57.7331 457.889 59.111 456.51 60.0296C455.053 61.0247 453.444 61.4841 451.605 61.4841C449.765 61.4841 448.616 61.1778 448.003 60.642Z" fill="white"/>
</mask>
<g mask="url(#mask11_524_1719)">
<path d="M-31.749 241.525V-409.452H619.974V241.525H-31.749Z" fill="url(#paint16_linear_524_1719)"/>
</g>
<mask id="mask12_524_1719" style="mask-type:luminance" maskUnits="userSpaceOnUse" x="195" y="79" width="18" height="21">
<path d="M212.572 79.3967C212.495 79.7794 212.265 79.9325 211.882 80.0856C211.499 80.1622 210.962 80.1622 210.196 80.1622C209.43 80.1622 208.587 80.1622 207.744 80.2387C206.901 80.2387 205.751 80.2387 204.372 80.2387C201.996 80.2387 200.003 80.2387 198.241 80.1622C198.087 80.1622 197.857 80.1622 197.551 80.1622C197.321 80.0856 197.014 80.0856 196.861 79.9325C196.631 79.856 196.554 79.7029 196.554 79.5498C196.554 79.3967 196.478 79.3967 196.325 79.3967C196.248 79.3967 196.171 79.3967 196.171 79.5498C196.171 79.856 196.171 80.3153 196.171 80.9277C196.095 81.4635 196.095 82.076 196.018 82.6884C195.941 83.3008 195.941 83.8366 195.865 84.3724C195.865 84.9083 195.788 85.291 195.788 85.5972C195.788 85.5972 195.788 85.6738 195.941 85.6738C196.018 85.6738 196.095 85.6738 196.095 85.5972C196.631 84.0662 197.244 82.918 198.164 82.0759C199.007 81.3104 200.08 80.8511 201.306 80.8511C201.689 80.8511 201.996 80.9277 202.149 81.0808C202.379 81.1573 202.532 81.3104 202.609 81.6166C202.685 81.8463 202.685 82.229 202.685 82.6118V96.697C202.685 97.3094 202.609 97.7687 202.456 98.0749C202.379 98.3811 202.149 98.5342 201.766 98.6873C201.383 98.7638 200.846 98.8404 200.156 98.8404C200.08 98.8404 200.08 98.8404 200.08 98.9935C200.08 99.1466 200.08 99.1466 200.156 99.1466C200.693 99.1466 201.383 99.1466 202.072 99.1466C202.762 99.1466 203.529 99.1466 204.372 99.1466C205.215 99.1466 205.981 99.1466 206.671 99.1466C207.437 99.1466 208.05 99.1466 208.587 99.1466C208.663 99.1466 208.74 99.1466 208.74 98.9935C208.74 98.8404 208.663 98.8404 208.587 98.8404C207.897 98.8404 207.36 98.7638 206.977 98.6873C206.671 98.5342 206.364 98.3811 206.287 98.0749C206.134 97.7687 206.134 97.3094 206.134 96.697V82.6884C206.134 82.2291 206.134 81.8463 206.211 81.6166C206.287 81.3104 206.441 81.1573 206.594 81.0808C206.824 80.9277 207.13 80.8511 207.59 80.8511C208.74 80.8511 209.736 81.2339 210.579 81.9994C211.422 82.7649 212.035 83.9897 212.342 85.5972C212.342 85.5972 212.418 85.6738 212.495 85.6738C212.648 85.6738 212.648 85.5972 212.648 85.5972C212.648 85.291 212.648 84.9083 212.725 84.3724C212.725 83.8366 212.725 83.2242 212.802 82.6118C212.802 81.9994 212.802 81.387 212.878 80.7746C212.878 80.1622 212.955 79.7794 212.955 79.3967C212.955 79.3201 212.878 79.3201 212.802 79.3201C212.725 79.3201 212.648 79.3201 212.572 79.3967Z" fill="white"/>
</mask>
<g mask="url(#mask12_524_1719)">
<path d="M-31.749 241.525V-409.452H619.974V241.525H-31.749Z" fill="url(#paint17_linear_524_1719)"/>
</g>
<mask id="mask13_524_1719" style="mask-type:luminance" maskUnits="userSpaceOnUse" x="215" y="80" width="21" height="20">
<path d="M221.385 80.1621C220.619 80.2387 219.852 80.2387 219.239 80.2387C218.473 80.2387 217.783 80.2387 217.17 80.2387C216.48 80.1621 215.867 80.1621 215.407 80.1621C215.331 80.1621 215.331 80.2387 215.331 80.3918C215.331 80.4683 215.331 80.5449 215.407 80.5449C216.02 80.5449 216.48 80.6214 216.787 80.698C217.093 80.8511 217.247 81.0042 217.4 81.3104C217.476 81.6166 217.553 82.0759 217.553 82.6117V96.6969C217.553 97.3093 217.476 97.7686 217.4 98.0748C217.247 98.381 217.017 98.5341 216.71 98.6872C216.403 98.7638 215.944 98.8403 215.331 98.8403C215.254 98.8403 215.254 98.8404 215.254 98.9935C215.254 99.1466 215.254 99.1466 215.331 99.1466C215.867 99.1466 216.48 99.1466 217.093 99.1466C217.783 99.1466 218.473 99.1466 219.239 99.1466C220.005 99.1466 220.695 99.1466 221.308 99.1466C221.998 99.1466 222.535 99.1466 223.071 99.1466C223.148 99.1466 223.148 99.1466 223.148 98.9935C223.148 98.8404 223.148 98.8403 223.071 98.8403C222.458 98.8403 221.998 98.7638 221.691 98.6872C221.385 98.5341 221.155 98.381 221.078 98.0748C221.002 97.7686 220.925 97.3093 220.925 96.6969V89.9606C221.155 90.0371 221.462 90.0371 221.768 90.0371H222.611C222.841 90.0371 223.071 90.0371 223.301 89.9606C224.45 91.7978 225.37 93.4053 226.29 94.7066C227.209 96.1611 228.052 97.3094 228.742 97.9983C229.432 98.7638 229.892 99.1466 230.198 99.1466H232.191H235.64C235.64 99.1466 235.716 99.1466 235.716 98.9935C235.716 98.8404 235.64 98.8403 235.64 98.8403C234.797 98.8403 233.954 98.4576 233.111 97.8452C232.191 97.1562 231.195 96.0845 230.045 94.6301C228.972 93.2522 227.669 91.415 226.136 89.1185C227.056 88.6592 227.899 87.9702 228.512 87.1282C229.125 86.2096 229.509 85.1379 229.509 83.9896C229.509 82.7648 228.972 81.7697 227.976 81.0807C226.979 80.4683 225.523 80.0856 223.684 80.0856C222.994 80.0856 222.228 80.0856 221.385 80.1621ZM221.845 89.2716C221.538 89.195 221.232 89.195 220.925 89.1185V82.6883C220.925 81.9993 221.078 81.4635 221.462 81.1573C221.768 80.8511 222.381 80.698 223.224 80.698C223.761 80.698 224.221 80.8511 224.68 81.0807C225.064 81.3104 225.447 81.7697 225.677 82.3821C225.907 82.9945 225.983 83.9131 225.983 85.1379C225.983 86.5923 225.753 87.5875 225.293 88.2764C224.757 88.9654 223.914 89.2716 222.688 89.2716C222.458 89.2716 222.151 89.2716 221.845 89.2716Z" fill="white"/>
</mask>
<g mask="url(#mask13_524_1719)">
<path d="M-31.749 241.525V-409.452H619.974V241.525H-31.749Z" fill="url(#paint18_linear_524_1719)"/>
</g>
<mask id="mask14_524_1719" style="mask-type:luminance" maskUnits="userSpaceOnUse" x="235" y="79" width="23" height="21">
<path d="M246.062 79.9323C245.832 79.9323 245.755 80.0088 245.755 80.0854L239.164 94.5533C238.628 95.7016 238.168 96.5436 237.785 97.156C237.402 97.7684 237.018 98.2277 236.635 98.4574C236.252 98.687 235.716 98.8401 235.179 98.8401C235.103 98.8401 235.103 98.8401 235.103 98.9932C235.103 99.1463 235.103 99.1463 235.179 99.1463C235.869 99.1463 236.482 99.1463 236.942 99.1463C237.402 99.0698 238.091 99.0698 238.858 99.0698C239.624 99.0698 240.237 99.0698 240.774 99.1463C241.31 99.1463 241.847 99.1463 242.46 99.1463C242.536 99.1463 242.613 99.1463 242.613 98.9932C242.613 98.8401 242.536 98.8401 242.46 98.8401C241.31 98.8401 240.467 98.4574 239.931 97.7684C239.394 97.0029 239.394 96.0843 240.007 94.8595L241.157 92.1803H248.667L250.737 96.314C251.196 97.3091 251.426 97.9981 251.273 98.3043C251.12 98.6105 250.66 98.8401 249.817 98.8401C249.74 98.8401 249.74 98.8401 249.74 98.9932C249.74 99.1463 249.74 99.1463 249.817 99.1463C250.43 99.1463 251.043 99.1463 251.503 99.1463C252.039 99.0698 252.653 99.0698 253.342 99.0698C253.955 99.0698 254.569 99.0698 255.258 99.1463C255.871 99.1463 256.484 99.1463 257.098 99.1463C257.251 99.1463 257.251 99.1463 257.251 98.9932C257.251 98.8401 257.251 98.8401 257.098 98.8401C256.791 98.8401 256.484 98.687 256.178 98.4574C255.871 98.2277 255.488 97.845 255.182 97.3091C254.798 96.6967 254.415 95.9312 253.879 95.0126L246.292 80.0854C246.292 80.0088 246.215 79.9323 246.062 79.9323ZM244.682 84.4487L248.208 91.3382H241.54L244.682 84.4487Z" fill="white"/>
</mask>
<g mask="url(#mask14_524_1719)">
<path d="M-31.751 241.525V-409.452H619.972V241.525H-31.751Z" fill="url(#paint19_linear_524_1719)"/>
</g>
<mask id="mask15_524_1719" style="mask-type:luminance" maskUnits="userSpaceOnUse" x="257" y="80" width="21" height="20">
<path d="M264.302 80.1621C263.459 80.2387 262.693 80.2387 261.927 80.2387C261.16 80.2387 260.47 80.2387 259.857 80.2387C259.168 80.1621 258.631 80.1621 258.095 80.1621C258.018 80.1621 258.018 80.2387 258.018 80.3918C258.018 80.4683 258.018 80.5449 258.095 80.5449C258.708 80.5449 259.168 80.6214 259.474 80.698C259.781 80.8511 260.011 81.0042 260.087 81.3104C260.164 81.6166 260.241 82.0759 260.241 82.6117V96.6969C260.241 97.3093 260.164 97.7686 260.087 98.0748C259.934 98.381 259.704 98.5341 259.398 98.6872C259.091 98.7638 258.631 98.8403 258.018 98.8403C257.941 98.8403 257.941 98.8404 257.941 98.9935C257.941 99.1466 257.941 99.1466 258.018 99.1466C258.555 99.1466 259.168 99.1466 259.781 99.1466C260.47 99.1466 261.16 99.1466 261.927 99.1466C262.693 99.1466 263.613 99.1465 264.609 99.2231C265.529 99.2996 266.372 99.2996 266.985 99.2996C268.364 99.2996 269.667 99.07 270.893 98.6107C272.043 98.1514 273.116 97.4624 274.035 96.6204C275.032 95.7783 275.721 94.7066 276.258 93.4818C276.794 92.257 277.024 90.8791 277.024 89.3481C277.024 87.5875 276.641 86.0565 275.721 84.6786C274.878 83.2241 273.652 82.1524 272.119 81.3104C270.51 80.5449 268.671 80.0856 266.601 80.0856C265.988 80.0856 265.222 80.1621 264.302 80.1621ZM264.226 98.0748C263.843 97.6921 263.613 97.1562 263.613 96.3907V82.6883C263.613 81.8462 263.843 81.3104 264.379 81.1573C264.839 80.9276 265.682 80.7745 266.908 80.7745C268.211 80.7745 269.36 81.2338 270.28 81.9993C271.276 82.8414 271.966 83.9896 272.503 85.3675C273.039 86.7454 273.346 88.2764 273.346 90.0371C273.346 91.8743 273.039 93.4053 272.426 94.7066C271.889 96.008 271.123 96.9266 270.127 97.6156C269.131 98.228 267.981 98.6107 266.678 98.6107C265.452 98.6107 264.609 98.381 264.226 98.0748Z" fill="white"/>
</mask>
<g mask="url(#mask15_524_1719)">
<path d="M-31.7495 241.525V-409.452H619.973V241.525H-31.7495Z" fill="url(#paint20_linear_524_1719)"/>
</g>
<mask id="mask16_524_1719" style="mask-type:luminance" maskUnits="userSpaceOnUse" x="279" y="80" width="9" height="20">
<path d="M285.838 80.2385C285.224 80.2385 284.458 80.2385 283.692 80.2385C283.002 80.2385 282.312 80.2385 281.623 80.2385C280.933 80.162 280.32 80.1619 279.783 80.1619C279.783 80.1619 279.783 80.2385 279.783 80.3916C279.783 80.4682 279.783 80.5447 279.783 80.5447C280.473 80.5447 280.933 80.6212 281.239 80.6978C281.546 80.8509 281.776 81.004 281.852 81.3102C282.006 81.6164 282.006 82.0757 282.006 82.6115V96.6968C282.006 97.3092 282.006 97.7685 281.852 98.0747C281.776 98.3809 281.546 98.534 281.239 98.6871C280.933 98.7636 280.473 98.8402 279.783 98.8402C279.783 98.8402 279.783 98.8402 279.783 98.9933C279.783 99.1464 279.783 99.1464 279.783 99.1464C280.32 99.1464 280.933 99.1464 281.623 99.1464C282.312 99.1464 283.002 99.1464 283.692 99.1464C284.458 99.1464 285.224 99.1464 285.838 99.1464C286.527 99.1464 287.064 99.1464 287.6 99.1464C287.677 99.1464 287.677 99.1464 287.677 98.9933C287.677 98.8402 287.677 98.8402 287.6 98.8402C286.987 98.8402 286.527 98.7636 286.221 98.6871C285.914 98.534 285.684 98.3809 285.608 98.0747C285.531 97.7685 285.454 97.3092 285.454 96.6968V82.6881C285.454 82.1523 285.531 81.693 285.608 81.3868C285.684 81.0806 285.914 80.8509 286.221 80.6978C286.527 80.6212 286.987 80.5447 287.6 80.5447C287.677 80.5447 287.677 80.4682 287.677 80.3916C287.677 80.2385 287.677 80.1619 287.6 80.1619C287.064 80.1619 286.527 80.162 285.838 80.2385Z" fill="white"/>
</mask>
<g mask="url(#mask16_524_1719)">
<path d="M-31.7495 241.525V-409.452H619.973V241.525H-31.7495Z" fill="url(#paint21_linear_524_1719)"/>
</g>
<mask id="mask17_524_1719" style="mask-type:luminance" maskUnits="userSpaceOnUse" x="289" y="80" width="22" height="20">
<path d="M309.441 80.2385C308.981 80.2385 308.368 80.2385 307.832 80.2385C307.295 80.2385 306.759 80.2385 306.299 80.2385C305.839 80.162 305.379 80.1619 304.919 80.1619C304.843 80.1619 304.843 80.2385 304.843 80.3916C304.843 80.4682 304.843 80.5447 304.919 80.5447C305.686 80.5447 306.299 80.8509 306.759 81.5399C307.218 82.1523 307.448 82.9943 307.448 84.066V93.8644L296.872 81.7695C296.413 81.1571 296.106 80.7743 295.953 80.5447C295.876 80.315 295.646 80.1619 295.416 80.1619C295.033 80.1619 294.573 80.162 294.037 80.2385C293.424 80.2385 292.811 80.2385 292.044 80.2385C291.661 80.2385 291.278 80.2385 290.895 80.2385C290.435 80.162 290.052 80.1619 289.592 80.1619C289.592 80.1619 289.515 80.2385 289.515 80.3916C289.515 80.4682 289.592 80.5447 289.592 80.5447C290.128 80.5447 290.588 80.6978 291.125 81.004C291.584 81.2337 292.121 81.7695 292.811 82.4584V95.3189C292.811 96.3906 292.581 97.2326 292.044 97.845C291.508 98.4574 290.818 98.8402 289.898 98.8402C289.822 98.8402 289.822 98.8402 289.822 98.9933C289.822 99.1464 289.822 99.1464 289.898 99.1464C290.435 99.1464 290.971 99.1464 291.508 99.1464C292.121 99.1464 292.657 99.1464 293.27 99.1464C293.883 99.1464 294.343 99.1464 294.88 99.1464C295.34 99.1464 295.799 99.1464 296.259 99.1464C296.259 99.1464 296.336 99.1464 296.336 98.9933C296.336 98.8402 296.259 98.8402 296.259 98.8402C295.416 98.8402 294.803 98.4574 294.42 97.845C293.96 97.2326 293.73 96.3906 293.73 95.3189V83.5301L307.985 99.6822C307.985 99.7587 308.061 99.7588 308.215 99.7588C308.291 99.7588 308.291 99.6822 308.291 99.6057V84.066C308.291 82.9943 308.521 82.1523 308.981 81.5399C309.518 80.8509 310.131 80.5447 310.897 80.5447C310.974 80.5447 310.974 80.4682 310.974 80.3916C310.974 80.2385 310.974 80.1619 310.897 80.1619C310.514 80.1619 309.977 80.162 309.441 80.2385Z" fill="white"/>
</mask>
<g mask="url(#mask17_524_1719)">
<path d="M-31.751 241.525V-409.453H619.972V241.525H-31.751Z" fill="url(#paint22_linear_524_1719)"/>
</g>
<mask id="mask18_524_1719" style="mask-type:luminance" maskUnits="userSpaceOnUse" x="312" y="79" width="21" height="21">
<path d="M319.941 80.5451C318.485 81.0809 317.258 81.7699 316.186 82.6119C315.113 83.5305 314.27 84.5257 313.656 85.7505C313.043 86.9753 312.813 88.3532 312.813 89.8077C312.813 91.1856 313.043 92.4103 313.58 93.5586C314.04 94.7834 314.806 95.7786 315.802 96.6972C316.722 97.5392 317.948 98.3047 319.328 98.764C320.707 99.2999 322.317 99.5295 324.079 99.5295C325.229 99.5295 326.378 99.4529 327.605 99.2998C328.907 99.1467 330.057 98.9171 331.13 98.6874C331.283 98.6109 331.36 98.6109 331.436 98.5343C331.436 98.5343 331.513 98.4578 331.513 98.3047C331.513 98.1516 331.436 97.9985 331.436 97.8454C331.436 97.6923 331.36 97.4626 331.36 97.1564C331.283 96.8502 331.283 96.3144 331.283 95.6254C331.283 94.5537 331.283 93.7883 331.36 93.2524C331.36 92.7931 331.513 92.4104 331.666 92.2573C331.82 92.1042 332.05 92.1042 332.433 92.1042C332.509 92.1042 332.586 92.0276 332.509 91.8745C332.509 91.7214 332.509 91.6448 332.433 91.6448C331.13 91.7214 329.98 91.7214 328.831 91.7214C327.681 91.7214 326.378 91.7214 324.999 91.5683C324.846 91.5683 324.846 91.7214 324.846 91.8745C324.846 92.0276 324.922 92.1042 324.999 92.1042C325.995 92.1042 326.685 92.1807 327.068 92.3338C327.528 92.4103 327.758 92.7165 327.911 93.1758C327.988 93.6351 328.064 94.4007 328.064 95.3193C328.064 96.391 327.911 97.1564 327.758 97.6923C327.528 98.2281 327.145 98.5344 326.685 98.764C326.225 98.9171 325.612 98.9937 324.846 98.9937C323.619 98.9937 322.546 98.764 321.55 98.3047C320.477 97.8454 319.634 97.1564 318.868 96.2378C318.101 95.3958 317.488 94.3241 317.105 93.1758C316.645 91.951 316.492 90.6497 316.492 89.1953C316.492 87.3581 316.799 85.827 317.412 84.5257C318.025 83.2243 318.868 82.2292 319.941 81.5403C321.014 80.8513 322.163 80.4685 323.466 80.4685C324.539 80.4685 325.459 80.6982 326.225 81.0809C326.991 81.4637 327.681 81.923 328.294 82.4588C328.831 83.0712 329.291 83.6071 329.674 84.1429C329.98 84.7553 330.287 85.2146 330.364 85.5974C330.44 85.6739 330.517 85.7505 330.593 85.7505C330.747 85.674 330.747 85.6739 330.747 85.5974L330.364 81.3871C330.364 81.0809 330.287 80.9278 330.287 80.8513C330.287 80.8513 330.134 80.7747 329.904 80.6982C329.291 80.392 328.524 80.2389 327.528 80.0858C326.532 79.9327 325.612 79.8561 324.616 79.8561C322.93 79.8561 321.397 80.0858 319.941 80.5451Z" fill="white"/>
</mask>
<g mask="url(#mask18_524_1719)">
<path d="M-31.7495 241.525V-409.452H619.974V241.525H-31.7495Z" fill="url(#paint23_linear_524_1719)"/>
</g>
<mask id="mask19_524_1719" style="mask-type:luminance" maskUnits="userSpaceOnUse" x="341" y="80" width="16" height="20">
<path d="M347.53 80.2385C346.917 80.2385 346.15 80.2385 345.384 80.2385C344.694 80.2385 344.005 80.2385 343.315 80.2385C342.625 80.162 342.012 80.1619 341.552 80.1619C341.552 80.1619 341.476 80.2385 341.476 80.3916C341.476 80.4682 341.552 80.5447 341.552 80.5447C342.165 80.5447 342.625 80.6212 342.932 80.6978C343.238 80.8509 343.468 81.004 343.545 81.3102C343.698 81.6164 343.775 82.0757 343.775 82.6115V96.6968C343.775 97.3092 343.698 97.7685 343.545 98.0747C343.468 98.3809 343.238 98.534 342.932 98.6871C342.625 98.7636 342.165 98.8402 341.552 98.8402C341.552 98.8402 341.476 98.8402 341.476 98.9933C341.476 99.1464 341.552 99.1464 341.552 99.1464H355.883C356.19 99.1464 356.343 98.9933 356.343 98.6871C356.343 97.9216 356.42 97.0795 356.497 96.0844C356.497 95.1658 356.573 94.4003 356.65 93.7113C356.65 93.6347 356.573 93.6347 356.497 93.5582C356.42 93.5582 356.343 93.5582 356.343 93.6348C355.883 95.0892 355.117 96.1609 353.968 97.0795C352.818 97.9216 351.438 98.3043 349.906 98.3043H348.833C348.373 98.3043 347.99 98.3043 347.76 98.2278C347.53 98.1512 347.3 97.9216 347.223 97.6919C347.147 97.4623 347.147 97.0795 347.147 96.6202V82.6881C347.147 82.0757 347.147 81.6164 347.3 81.3102C347.377 81.004 347.607 80.8509 347.913 80.6978C348.22 80.6212 348.68 80.5447 349.293 80.5447C349.369 80.5447 349.369 80.4682 349.369 80.3916C349.369 80.2385 349.369 80.1619 349.293 80.1619C348.756 80.1619 348.22 80.162 347.53 80.2385Z" fill="white"/>
</mask>
<g mask="url(#mask19_524_1719)">
<path d="M-31.7495 241.525V-409.452H619.973V241.525H-31.7495Z" fill="url(#paint24_linear_524_1719)"/>
</g>
<mask id="mask20_524_1719" style="mask-type:luminance" maskUnits="userSpaceOnUse" x="358" y="95" width="5" height="5">
<path d="M359.026 96.3905C358.72 96.6967 358.566 97.156 358.566 97.6153C358.566 98.2277 358.72 98.687 359.026 98.9932C359.409 99.3759 359.869 99.5291 360.406 99.5291C361.019 99.5291 361.479 99.3759 361.785 98.9932C362.092 98.687 362.245 98.2277 362.245 97.6153C362.245 97.156 362.092 96.6967 361.785 96.3905C361.479 96.0843 361.019 95.8546 360.406 95.8546C359.869 95.8546 359.409 96.0843 359.026 96.3905Z" fill="white"/>
</mask>
<g mask="url(#mask20_524_1719)">
<path d="M-31.749 241.525V-409.452H619.974V241.525H-31.749Z" fill="url(#paint25_linear_524_1719)"/>
</g>
<mask id="mask21_524_1719" style="mask-type:luminance" maskUnits="userSpaceOnUse" x="364" y="80" width="16" height="20">
<path d="M370.444 80.2385C369.755 80.2385 369.065 80.2385 368.299 80.2385C367.532 80.2385 366.843 80.2385 366.153 80.2385C365.463 80.162 364.927 80.1619 364.39 80.1619C364.39 80.1619 364.39 80.2385 364.39 80.3916C364.39 80.4682 364.39 80.5447 364.39 80.5447C365.08 80.5447 365.54 80.6212 365.846 80.6978C366.153 80.8509 366.306 81.004 366.459 81.3102C366.536 81.6164 366.613 82.0757 366.613 82.6115V96.6968C366.613 97.3092 366.536 97.7685 366.459 98.0747C366.306 98.3809 366.153 98.534 365.846 98.6871C365.54 98.7636 365.08 98.8402 364.39 98.8402C364.39 98.8402 364.39 98.8402 364.39 98.9933C364.39 99.1464 364.39 99.1464 364.39 99.1464H378.798C379.105 99.1464 379.258 98.9933 379.258 98.6871C379.258 97.9216 379.258 97.0795 379.334 96.0844C379.411 95.1658 379.488 94.4003 379.488 93.7113C379.488 93.6347 379.488 93.6347 379.334 93.5582C379.258 93.5582 379.181 93.5582 379.181 93.6348C378.798 95.0892 378.032 96.1609 376.882 97.0795C375.733 97.9216 374.353 98.3043 372.744 98.3043H371.747C371.211 98.3043 370.904 98.3043 370.598 98.2278C370.368 98.1512 370.215 97.9216 370.138 97.6919C370.061 97.4623 369.985 97.0795 369.985 96.6202V82.6881C369.985 82.0757 370.061 81.6164 370.138 81.3102C370.215 81.004 370.445 80.8509 370.751 80.6978C371.058 80.6212 371.517 80.5447 372.131 80.5447C372.207 80.5447 372.207 80.4682 372.207 80.3916C372.207 80.2385 372.207 80.1619 372.131 80.1619C371.671 80.1619 371.058 80.162 370.444 80.2385Z" fill="white"/>
</mask>
<g mask="url(#mask21_524_1719)">
<path d="M-31.7495 241.525V-409.452H619.973V241.525H-31.7495Z" fill="url(#paint26_linear_524_1719)"/>
</g>
<mask id="mask22_524_1719" style="mask-type:luminance" maskUnits="userSpaceOnUse" x="381" y="79" width="19" height="21">
<path d="M388.532 80.5451C387.153 81.0809 385.926 81.7699 384.854 82.6119C383.857 83.5305 383.014 84.6022 382.478 85.827C381.865 87.0518 381.558 88.3532 381.558 89.8077C381.558 91.7214 382.095 93.4055 383.014 94.8599C384.011 96.3144 385.313 97.4626 387.076 98.3047C388.762 99.1467 390.678 99.5295 392.9 99.5295C393.744 99.5295 394.663 99.4529 395.659 99.2998C396.579 99.1467 397.575 98.8405 398.572 98.5343C398.725 98.4578 398.878 98.3812 398.878 98.3047C398.955 98.2281 398.955 98.0751 399.032 97.8454L399.491 94.0944C399.491 94.0179 399.415 93.9413 399.338 93.9413C399.261 93.9413 399.185 93.9414 399.108 94.0179C398.265 95.702 397.422 96.9268 396.502 97.6923C395.506 98.5343 394.357 98.9171 392.9 98.9171C391.828 98.9171 390.831 98.6875 389.912 98.2282C388.992 97.8454 388.149 97.1564 387.536 96.3909C386.846 95.5489 386.31 94.5537 385.926 93.482C385.62 92.3338 385.39 91.0325 385.39 89.578C385.39 87.7408 385.697 86.1332 386.31 84.7553C386.923 83.3774 387.842 82.3057 388.915 81.6168C389.988 80.8513 391.214 80.4685 392.594 80.4685C394.127 80.4685 395.353 80.9278 396.426 81.8464C397.422 82.6885 398.265 83.9898 398.802 85.5974C398.878 85.6739 398.955 85.7505 399.032 85.7505C399.108 85.674 399.185 85.6739 399.185 85.5974L398.802 81.3871C398.802 81.1575 398.725 81.0044 398.725 80.9278C398.648 80.7747 398.495 80.6982 398.342 80.6982C397.959 80.4685 397.422 80.3154 396.886 80.2389C396.273 80.0858 395.659 80.0092 394.97 79.9327C394.28 79.8561 393.667 79.8561 393.054 79.8561C391.444 79.8561 389.912 80.0858 388.532 80.5451Z" fill="white"/>
</mask>
<g mask="url(#mask22_524_1719)">
<path d="M-31.749 241.525V-409.452H619.974V241.525H-31.749Z" fill="url(#paint27_linear_524_1719)"/>
</g>
<defs>
<linearGradient id="paint0_linear_524_1719" x1="212.277" y1="11.3387" x2="212.277" y2="-17.3247" gradientUnits="userSpaceOnUse">
<stop stop-color="#B46A11"/>
<stop offset="0.584524" stop-color="#B66C11"/>
<stop offset="0.779762" stop-color="#BE7412"/>
<stop offset="0.914286" stop-color="#CA8114"/>
<stop offset="1" stop-color="#D78E15"/>
</linearGradient>
<linearGradient id="paint1_linear_524_1719" x1="170.562" y1="-139.44" x2="170.562" y2="-242.462" gradientUnits="userSpaceOnUse">
<stop stop-color="#B46A11"/>
<stop offset="0.0690476" stop-color="#C57B13"/>
<stop offset="0.144048" stop-color="#CF8614"/>
<stop offset="0.215476" stop-color="#D48B15"/>
<stop offset="0.32619" stop-color="#D68E15"/>
<stop offset="0.69881" stop-color="#E7AC18"/>
<stop offset="0.865476" stop-color="#E8AE1A"/>
<stop offset="0.927381" stop-color="#ECB322"/>
<stop offset="0.97381" stop-color="#F2BE30"/>
<stop offset="1" stop-color="#F8C73C"/>
</linearGradient>
<linearGradient id="paint2_linear_524_1719" x1="230.021" y1="-138.105" x2="230.021" y2="-224.892" gradientUnits="userSpaceOnUse">
<stop stop-color="#B46A11"/>
<stop offset="0.0404762" stop-color="#C47B13"/>
<stop offset="0.0857143" stop-color="#CE8514"/>
<stop offset="0.144048" stop-color="#D48B15"/>
<stop offset="0.279762" stop-color="#D68D15"/>
<stop offset="0.34881" stop-color="#D78F15"/>
<stop offset="0.697619" stop-color="#E7AC18"/>
<stop offset="0.865476" stop-color="#E8AE1A"/>
<stop offset="0.927381" stop-color="#ECB322"/>
<stop offset="0.97381" stop-color="#F2BE30"/>
<stop offset="1" stop-color="#F8C73C"/>
</linearGradient>
<linearGradient id="paint3_linear_524_1719" x1="159.615" y1="-39.0029" x2="159.615" y2="-74.9577" gradientUnits="userSpaceOnUse">
<stop stop-color="#B46A11"/>
<stop offset="0.588095" stop-color="#B66C11"/>
<stop offset="0.784524" stop-color="#BE7412"/>
<stop offset="0.920238" stop-color="#CA8114"/>
<stop offset="1" stop-color="#D68D15"/>
</linearGradient>
<linearGradient id="paint4_linear_524_1719" x1="194.838" y1="-5.93719" x2="194.838" y2="-138.411" gradientUnits="userSpaceOnUse">
<stop stop-color="#B46A11"/>
<stop offset="0.188095" stop-color="#B66C11"/>
<stop offset="0.25" stop-color="#BE7412"/>
<stop offset="0.294048" stop-color="#CA8114"/>
<stop offset="0.322619" stop-color="#D68D15"/>
<stop offset="0.697619" stop-color="#E7AC18"/>
<stop offset="0.865476" stop-color="#E8AE1A"/>
<stop offset="0.927381" stop-color="#ECB322"/>
<stop offset="0.97381" stop-color="#F2BE30"/>
<stop offset="1" stop-color="#F8C73C"/>
</linearGradient>
<linearGradient id="paint5_linear_524_1719" x1="125.014" y1="72.7843" x2="125.014" y2="35.1581" gradientUnits="userSpaceOnUse">
<stop stop-color="#B46A11"/>
<stop offset="0.325" stop-color="#B66C11"/>
<stop offset="0.529762" stop-color="#BF7512"/>
<stop offset="0.679762" stop-color="#CC8314"/>
<stop offset="0.767857" stop-color="#D68D15"/>
<stop offset="0.902381" stop-color="#D78F15"/>
<stop offset="0.95119" stop-color="#DC9716"/>
<stop offset="0.985714" stop-color="#E3A417"/>
<stop offset="1" stop-color="#E7AB18"/>
</linearGradient>
<linearGradient id="paint6_linear_524_1719" x1="149.953" y1="62.2822" x2="149.953" y2="34.8302" gradientUnits="userSpaceOnUse">
<stop stop-color="#B46A11"/>
<stop offset="0.325" stop-color="#B66C11"/>
<stop offset="0.529762" stop-color="#BF7512"/>
<stop offset="0.679762" stop-color="#CC8314"/>
<stop offset="0.767857" stop-color="#D68D15"/>
<stop offset="0.902381" stop-color="#D78F15"/>
<stop offset="0.95119" stop-color="#DC9716"/>
<stop offset="0.985714" stop-color="#E3A417"/>
<stop offset="1" stop-color="#E7AB18"/>
</linearGradient>
<linearGradient id="paint7_linear_524_1719" x1="177.213" y1="62.8031" x2="177.213" y2="34.6807" gradientUnits="userSpaceOnUse">
<stop stop-color="#B46A11"/>
<stop offset="0.325" stop-color="#B66C11"/>
<stop offset="0.529762" stop-color="#BF7512"/>
<stop offset="0.679762" stop-color="#CC8314"/>
<stop offset="0.767857" stop-color="#D68D15"/>
<stop offset="0.902381" stop-color="#D78F15"/>
<stop offset="0.95119" stop-color="#DC9716"/>
<stop offset="0.985714" stop-color="#E3A417"/>
<stop offset="1" stop-color="#E7AB18"/>
</linearGradient>
<linearGradient id="paint8_linear_524_1719" x1="216.754" y1="62.2818" x2="216.754" y2="35.1581" gradientUnits="userSpaceOnUse">
<stop stop-color="#B46A11"/>
<stop offset="0.325" stop-color="#B66C11"/>
<stop offset="0.529762" stop-color="#BF7512"/>
<stop offset="0.679762" stop-color="#CC8314"/>
<stop offset="0.767857" stop-color="#D68D15"/>
<stop offset="0.902381" stop-color="#D78F15"/>
<stop offset="0.95119" stop-color="#DC9716"/>
<stop offset="0.985714" stop-color="#E3A417"/>
<stop offset="1" stop-color="#E7AB18"/>
</linearGradient>
<linearGradient id="paint9_linear_524_1719" x1="247.189" y1="62.2818" x2="247.189" y2="35.1581" gradientUnits="userSpaceOnUse">
<stop stop-color="#B46A11"/>
<stop offset="0.325" stop-color="#B66C11"/>
<stop offset="0.529762" stop-color="#BF7512"/>
<stop offset="0.679762" stop-color="#CC8314"/>
<stop offset="0.767857" stop-color="#D68D15"/>
<stop offset="0.902381" stop-color="#D78F15"/>
<stop offset="0.95119" stop-color="#DC9716"/>
<stop offset="0.985714" stop-color="#E3A417"/>
<stop offset="1" stop-color="#E7AB18"/>
</linearGradient>
<linearGradient id="paint10_linear_524_1719" x1="273.344" y1="62.2821" x2="273.344" y2="33.8995" gradientUnits="userSpaceOnUse">
<stop stop-color="#B46A11"/>
<stop offset="0.325" stop-color="#B66C11"/>
<stop offset="0.529762" stop-color="#BF7512"/>
<stop offset="0.679762" stop-color="#CC8314"/>
<stop offset="0.767857" stop-color="#D68D15"/>
<stop offset="0.902381" stop-color="#D78F15"/>
<stop offset="0.95119" stop-color="#DC9716"/>
<stop offset="0.985714" stop-color="#E3A417"/>
<stop offset="1" stop-color="#E7AB18"/>
</linearGradient>
<linearGradient id="paint11_linear_524_1719" x1="299.718" y1="62.2822" x2="299.718" y2="34.8302" gradientUnits="userSpaceOnUse">
<stop stop-color="#B46A11"/>
<stop offset="0.325" stop-color="#B66C11"/>
<stop offset="0.529762" stop-color="#BF7512"/>
<stop offset="0.679762" stop-color="#CC8314"/>
<stop offset="0.767857" stop-color="#D68D15"/>
<stop offset="0.902381" stop-color="#D78F15"/>
<stop offset="0.95119" stop-color="#DC9716"/>
<stop offset="0.985714" stop-color="#E3A417"/>
<stop offset="1" stop-color="#E7AB18"/>
</linearGradient>
<linearGradient id="paint12_linear_524_1719" x1="327.35" y1="62.2818" x2="327.35" y2="35.1581" gradientUnits="userSpaceOnUse">
<stop stop-color="#B46A11"/>
<stop offset="0.325" stop-color="#B66C11"/>
<stop offset="0.529762" stop-color="#BF7512"/>
<stop offset="0.679762" stop-color="#CC8314"/>
<stop offset="0.767857" stop-color="#D68D15"/>
<stop offset="0.902381" stop-color="#D78F15"/>
<stop offset="0.95119" stop-color="#DC9716"/>
<stop offset="0.985714" stop-color="#E3A417"/>
<stop offset="1" stop-color="#E7AB18"/>
</linearGradient>
<linearGradient id="paint13_linear_524_1719" x1="365.401" y1="62.8031" x2="365.401" y2="34.6807" gradientUnits="userSpaceOnUse">
<stop stop-color="#B46A11"/>
<stop offset="0.325" stop-color="#B66C11"/>
<stop offset="0.529762" stop-color="#BF7512"/>
<stop offset="0.679762" stop-color="#CC8314"/>
<stop offset="0.767857" stop-color="#D68D15"/>
<stop offset="0.902381" stop-color="#D78F15"/>
<stop offset="0.95119" stop-color="#DC9716"/>
<stop offset="0.985714" stop-color="#E3A417"/>
<stop offset="1" stop-color="#E7AB18"/>
</linearGradient>
<linearGradient id="paint14_linear_524_1719" x1="397.559" y1="62.8031" x2="397.559" y2="34.6807" gradientUnits="userSpaceOnUse">
<stop stop-color="#B46A11"/>
<stop offset="0.325" stop-color="#B66C11"/>
<stop offset="0.529762" stop-color="#BF7512"/>
<stop offset="0.679762" stop-color="#CC8314"/>
<stop offset="0.767857" stop-color="#D68D15"/>
<stop offset="0.902381" stop-color="#D78F15"/>
<stop offset="0.95119" stop-color="#DC9716"/>
<stop offset="0.985714" stop-color="#E3A417"/>
<stop offset="1" stop-color="#E7AB18"/>
</linearGradient>
<linearGradient id="paint15_linear_524_1719" x1="426.236" y1="62.2818" x2="426.236" y2="35.1581" gradientUnits="userSpaceOnUse">
<stop stop-color="#B46A11"/>
<stop offset="0.325" stop-color="#B66C11"/>
<stop offset="0.529762" stop-color="#BF7512"/>
<stop offset="0.679762" stop-color="#CC8314"/>
<stop offset="0.767857" stop-color="#D68D15"/>
<stop offset="0.902381" stop-color="#D78F15"/>
<stop offset="0.95119" stop-color="#DC9716"/>
<stop offset="0.985714" stop-color="#E3A417"/>
<stop offset="1" stop-color="#E7AB18"/>
</linearGradient>
<linearGradient id="paint16_linear_524_1719" x1="452.739" y1="62.4555" x2="452.739" y2="35.0709" gradientUnits="userSpaceOnUse">
<stop stop-color="#B46A11"/>
<stop offset="0.325" stop-color="#B66C11"/>
<stop offset="0.529762" stop-color="#BF7512"/>
<stop offset="0.679762" stop-color="#CC8314"/>
<stop offset="0.767857" stop-color="#D68D15"/>
<stop offset="0.902381" stop-color="#D78F15"/>
<stop offset="0.95119" stop-color="#DC9716"/>
<stop offset="0.985714" stop-color="#E3A417"/>
<stop offset="1" stop-color="#E7AB18"/>
</linearGradient>
<linearGradient id="paint17_linear_524_1719" x1="204.363" y1="99.171" x2="204.363" y2="79.3031" gradientUnits="userSpaceOnUse">
<stop stop-color="#B46A11"/>
<stop offset="0.325" stop-color="#B66C11"/>
<stop offset="0.529762" stop-color="#BF7512"/>
<stop offset="0.679762" stop-color="#CC8314"/>
<stop offset="0.767857" stop-color="#D68D15"/>
<stop offset="0.902381" stop-color="#D78F15"/>
<stop offset="0.95119" stop-color="#DC9716"/>
<stop offset="0.985714" stop-color="#E3A417"/>
<stop offset="1" stop-color="#E7AB18"/>
</linearGradient>
<linearGradient id="paint18_linear_524_1719" x1="225.47" y1="99.171" x2="225.47" y2="80.0933" gradientUnits="userSpaceOnUse">
<stop stop-color="#B46A11"/>
<stop offset="0.325" stop-color="#B66C11"/>
<stop offset="0.529762" stop-color="#BF7512"/>
<stop offset="0.679762" stop-color="#CC8314"/>
<stop offset="0.767857" stop-color="#D68D15"/>
<stop offset="0.902381" stop-color="#D78F15"/>
<stop offset="0.95119" stop-color="#DC9716"/>
<stop offset="0.985714" stop-color="#E3A417"/>
<stop offset="1" stop-color="#E7AB18"/>
</linearGradient>
<linearGradient id="paint19_linear_524_1719" x1="246.18" y1="99.1708" x2="246.18" y2="79.9545" gradientUnits="userSpaceOnUse">
<stop stop-color="#B46A11"/>
<stop offset="0.325" stop-color="#B66C11"/>
<stop offset="0.529762" stop-color="#BF7512"/>
<stop offset="0.679762" stop-color="#CC8314"/>
<stop offset="0.767857" stop-color="#D68D15"/>
<stop offset="0.902381" stop-color="#D78F15"/>
<stop offset="0.95119" stop-color="#DC9716"/>
<stop offset="0.985714" stop-color="#E3A417"/>
<stop offset="1" stop-color="#E7AB18"/>
</linearGradient>
<linearGradient id="paint20_linear_524_1719" x1="267.501" y1="99.2928" x2="267.501" y2="80.1232" gradientUnits="userSpaceOnUse">
<stop stop-color="#B46A11"/>
<stop offset="0.325" stop-color="#B66C11"/>
<stop offset="0.529762" stop-color="#BF7512"/>
<stop offset="0.679762" stop-color="#CC8314"/>
<stop offset="0.767857" stop-color="#D68D15"/>
<stop offset="0.902381" stop-color="#D78F15"/>
<stop offset="0.95119" stop-color="#DC9716"/>
<stop offset="0.985714" stop-color="#E3A417"/>
<stop offset="1" stop-color="#E7AB18"/>
</linearGradient>
<linearGradient id="paint21_linear_524_1719" x1="283.726" y1="99.1707" x2="283.726" y2="80.1842" gradientUnits="userSpaceOnUse">
<stop stop-color="#B46A11"/>
<stop offset="0.325" stop-color="#B66C11"/>
<stop offset="0.529762" stop-color="#BF7512"/>
<stop offset="0.679762" stop-color="#CC8314"/>
<stop offset="0.767857" stop-color="#D68D15"/>
<stop offset="0.902381" stop-color="#D78F15"/>
<stop offset="0.95119" stop-color="#DC9716"/>
<stop offset="0.985714" stop-color="#E3A417"/>
<stop offset="1" stop-color="#E7AB18"/>
</linearGradient>
<linearGradient id="paint22_linear_524_1719" x1="300.27" y1="99.7376" x2="300.27" y2="80.1842" gradientUnits="userSpaceOnUse">
<stop stop-color="#B46A11"/>
<stop offset="0.325" stop-color="#B66C11"/>
<stop offset="0.529762" stop-color="#BF7512"/>
<stop offset="0.679762" stop-color="#CC8314"/>
<stop offset="0.767857" stop-color="#D68D15"/>
<stop offset="0.902381" stop-color="#D78F15"/>
<stop offset="0.95119" stop-color="#DC9716"/>
<stop offset="0.985714" stop-color="#E3A417"/>
<stop offset="1" stop-color="#E7AB18"/>
</linearGradient>
<linearGradient id="paint23_linear_524_1719" x1="322.663" y1="99.536" x2="322.663" y2="79.8505" gradientUnits="userSpaceOnUse">
<stop stop-color="#B46A11"/>
<stop offset="0.325" stop-color="#B66C11"/>
<stop offset="0.529762" stop-color="#BF7512"/>
<stop offset="0.679762" stop-color="#CC8314"/>
<stop offset="0.767857" stop-color="#D68D15"/>
<stop offset="0.902381" stop-color="#D78F15"/>
<stop offset="0.95119" stop-color="#DC9716"/>
<stop offset="0.985714" stop-color="#E3A417"/>
<stop offset="1" stop-color="#E7AB18"/>
</linearGradient>
<linearGradient id="paint24_linear_524_1719" x1="349.069" y1="99.1707" x2="349.069" y2="80.1842" gradientUnits="userSpaceOnUse">
<stop stop-color="#B46A11"/>
<stop offset="0.325" stop-color="#B66C11"/>
<stop offset="0.529762" stop-color="#BF7512"/>
<stop offset="0.679762" stop-color="#CC8314"/>
<stop offset="0.767857" stop-color="#D68D15"/>
<stop offset="0.902381" stop-color="#D78F15"/>
<stop offset="0.95119" stop-color="#DC9716"/>
<stop offset="0.985714" stop-color="#E3A417"/>
<stop offset="1" stop-color="#E7AB18"/>
</linearGradient>
<linearGradient id="paint25_linear_524_1719" x1="360.383" y1="99.5049" x2="360.383" y2="95.8897" gradientUnits="userSpaceOnUse">
<stop stop-color="#B46A11"/>
<stop offset="0.325" stop-color="#B66C11"/>
<stop offset="0.529762" stop-color="#BF7512"/>
<stop offset="0.679762" stop-color="#CC8314"/>
<stop offset="0.767857" stop-color="#D68D15"/>
<stop offset="0.902381" stop-color="#D78F15"/>
<stop offset="0.95119" stop-color="#DC9716"/>
<stop offset="0.985714" stop-color="#E3A417"/>
<stop offset="1" stop-color="#E7AB18"/>
</linearGradient>
<linearGradient id="paint26_linear_524_1719" x1="371.939" y1="99.1707" x2="371.939" y2="80.1842" gradientUnits="userSpaceOnUse">
<stop stop-color="#B46A11"/>
<stop offset="0.325" stop-color="#B66C11"/>
<stop offset="0.529762" stop-color="#BF7512"/>
<stop offset="0.679762" stop-color="#CC8314"/>
<stop offset="0.767857" stop-color="#D68D15"/>
<stop offset="0.902381" stop-color="#D78F15"/>
<stop offset="0.95119" stop-color="#DC9716"/>
<stop offset="0.985714" stop-color="#E3A417"/>
<stop offset="1" stop-color="#E7AB18"/>
</linearGradient>
<linearGradient id="paint27_linear_524_1719" x1="390.522" y1="99.536" x2="390.522" y2="79.8505" gradientUnits="userSpaceOnUse">
<stop stop-color="#B46A11"/>
<stop offset="0.325" stop-color="#B66C11"/>
<stop offset="0.529762" stop-color="#BF7512"/>
<stop offset="0.679762" stop-color="#CC8314"/>
<stop offset="0.767857" stop-color="#D68D15"/>
<stop offset="0.902381" stop-color="#D78F15"/>
<stop offset="0.95119" stop-color="#DC9716"/>
<stop offset="0.985714" stop-color="#E3A417"/>
<stop offset="1" stop-color="#E7AB18"/>
</linearGradient>
</defs>
</svg>
