<svg width="293" height="106" viewBox="0 0 293 106" fill="none" xmlns="http://www.w3.org/2000/svg">
<path d="M293 41.6361V80H19V10.2856C19 4.60542 22.3658 7.5221e-08 26.5182 7.5221e-08H262.57C279.376 -0.00136733 293 18.6405 293 41.6361Z" fill="url(#paint0_linear_2001_75)"/>
<path opacity="0.2" d="M240.012 34C238.048 37.7354 235.683 41.2256 232.963 44.3986C222.751 56.4115 207.667 64 190.841 64H11.0117C11.0117 63.9728 11.0203 63.927 11.0203 63.8735C11.109 63.2839 11.5268 61.2444 12.1755 58.2981H29.3299V34H240.012Z" fill="#232013"/>
<path d="M253 0C253 0.679133 252.991 1.35827 252.981 2.02365C252.972 2.80452 252.944 3.57301 252.916 4.34288C252.897 4.82955 252.879 5.30384 252.851 5.77813C252.786 7.12265 252.693 8.45479 252.571 9.77457C252.534 10.1581 252.506 10.5554 252.459 10.9404C252.44 11.1452 252.422 11.35 252.403 11.5425C252.356 11.9907 252.31 12.4141 252.254 12.8485C252.198 13.3737 252.133 13.8989 252.058 14.4116C251.984 15.0138 251.9 15.6159 251.806 16.2181C251.713 16.8711 251.61 17.5255 251.499 18.1648C251.387 18.8178 251.275 19.4584 251.154 20.099C251.033 20.7397 250.912 21.3803 250.781 22.021C250.25 24.5698 249.635 27.0677 248.935 29.5148C248.758 30.1169 248.581 30.7191 248.395 31.3089C247.566 33.9993 246.634 36.6251 245.6 39.1615C245.423 39.6097 245.237 40.0579 245.05 40.4937C244.677 41.3776 244.286 42.2492 243.895 43.1071C243.69 43.5429 243.485 43.9649 243.289 44.3884C243.084 44.8118 242.87 45.2338 242.665 45.6573C242.618 45.7466 242.572 45.8497 242.516 45.9391C242.171 46.6182 241.826 47.2974 241.463 47.9628C241.435 48.0136 241.398 48.0659 241.37 48.1291C240.968 48.8591 240.558 49.5891 240.139 50.3067C240.092 50.3837 240.055 50.4483 240.009 50.5239C239.776 50.9212 239.543 51.3185 239.301 51.7021C238.602 52.8679 237.866 54.0076 237.102 55.1101C236.086 56.5839 235.043 58.0054 233.953 59.376C233.571 59.8627 233.179 60.337 232.787 60.7975C232.638 60.9776 232.48 61.1564 232.331 61.3351C232.294 61.3859 232.256 61.4244 232.219 61.4767C231.958 61.7709 231.697 62.0665 231.436 62.3607C230.868 63.0013 230.29 63.6296 229.694 64.2441C229.107 64.8462 228.511 65.4484 227.905 66.0244C227.299 66.6142 226.684 67.1778 226.06 67.7277C225.436 68.279 224.801 68.8042 224.158 69.3293C223.888 69.5465 223.608 69.7775 223.329 69.9823C223.282 70.0208 223.245 70.0469 223.199 70.0854C222.873 70.3411 222.547 70.5845 222.221 70.8278C221.895 71.0711 221.569 71.3145 221.233 71.5454C220.907 71.7764 220.572 72.006 220.236 72.237C219.929 72.4418 219.612 72.6466 219.295 72.8638C219.239 72.89 219.193 72.9285 219.137 72.9532C218.149 73.5938 217.151 74.196 216.136 74.7335C215.857 74.8875 215.577 75.0415 215.297 75.1817C215.194 75.2326 215.092 75.2848 214.989 75.348C214.672 75.502 214.346 75.6684 214.029 75.8223C212.948 76.3599 211.849 76.8465 210.73 77.2823C205.567 79.3321 200.115 80.4333 194.487 80.4333H9.6452C6.97987 80.4333 4.56658 81.9194 2.82336 84.3142C1.95625 85.5062 1.24814 86.9277 0.764074 88.4908C0.326018 89.8875 0.0650082 91.4108 0 93C0 91.4878 0.0279879 89.9893 0.083995 88.4908C0.083995 88.4523 0.0929988 88.3877 0.0929988 88.3121C0.186011 87.479 0.624065 84.5974 1.30415 80.4347C4.38854 61.3736 12.3005 15.374 12.3005 15.374C12.9906 11.7487 14.3508 8.55928 16.177 6.04896C16.6801 5.35745 17.2112 4.71681 17.7802 4.12704C18.4883 3.39704 19.2434 2.74403 20.0355 2.20512C22.0768 0.783615 24.3591 0.00137401 26.7634 0.00137401L253 0Z" fill="url(#paint1_linear_2001_75)"/>
<path d="M86.048 56.576C82.848 56.576 80.064 55.872 77.696 54.464C75.328 53.024 73.488 51.024 72.176 48.464C70.864 45.872 70.208 42.864 70.208 39.44C70.208 35.984 70.88 32.944 72.224 30.32C73.568 27.664 75.504 25.584 78.032 24.08C80.56 22.576 83.584 21.824 87.104 21.824C91.04 21.824 94.304 22.768 96.896 24.656C99.52 26.544 101.216 29.168 101.984 32.528H94.736C94.256 31.056 93.36 29.904 92.048 29.072C90.768 28.208 89.104 27.776 87.056 27.776C84.88 27.776 83.024 28.256 81.488 29.216C79.952 30.176 78.784 31.52 77.984 33.248C77.184 34.976 76.784 37.04 76.784 39.44C76.784 41.872 77.184 43.936 77.984 45.632C78.784 47.328 79.92 48.624 81.392 49.52C82.896 50.384 84.656 50.816 86.672 50.816C89.616 50.816 91.84 50.032 93.344 48.464C94.88 46.864 95.792 44.8 96.08 42.272H87.824V37.424H102.608V56H96.608L96.128 51.728C95.424 52.784 94.592 53.68 93.632 54.416C92.704 55.12 91.616 55.648 90.368 56C89.12 56.384 87.68 56.576 86.048 56.576ZM124.175 56.576C120.911 56.576 118.031 55.84 115.535 54.368C113.039 52.896 111.087 50.864 109.679 48.272C108.271 45.648 107.567 42.624 107.567 39.2C107.567 35.776 108.271 32.768 109.679 30.176C111.087 27.552 113.039 25.504 115.535 24.032C118.031 22.56 120.911 21.824 124.175 21.824C127.471 21.824 130.367 22.56 132.863 24.032C135.359 25.504 137.295 27.552 138.671 30.176C140.079 32.768 140.783 35.776 140.783 39.2C140.783 42.624 140.079 45.648 138.671 48.272C137.295 50.864 135.359 52.896 132.863 54.368C130.367 55.84 127.471 56.576 124.175 56.576ZM124.175 50.768C126.223 50.768 127.983 50.304 129.455 49.376C130.959 48.416 132.127 47.072 132.959 45.344C133.791 43.616 134.207 41.568 134.207 39.2C134.207 36.8 133.791 34.752 132.959 33.056C132.127 31.328 130.959 30 129.455 29.072C127.983 28.144 126.223 27.68 124.175 27.68C122.159 27.68 120.399 28.144 118.895 29.072C117.391 30 116.223 31.328 115.391 33.056C114.559 34.752 114.143 36.8 114.143 39.2C114.143 41.568 114.559 43.616 115.391 45.344C116.223 47.072 117.391 48.416 118.895 49.376C120.399 50.304 122.159 50.768 124.175 50.768ZM146.312 56V22.4H152.792V50.96H167.528V56H146.312ZM173.078 56V22.4H184.31C188.214 22.4 191.43 23.104 193.958 24.512C196.518 25.888 198.406 27.84 199.622 30.368C200.87 32.864 201.494 35.808 201.494 39.2C201.494 42.592 200.87 45.552 199.622 48.08C198.406 50.576 196.534 52.528 194.006 53.936C191.478 55.312 188.246 56 184.31 56H173.078ZM179.558 50.432H183.974C186.726 50.432 188.886 49.984 190.454 49.088C192.054 48.192 193.19 46.912 193.862 45.248C194.534 43.552 194.87 41.536 194.87 39.2C194.87 36.832 194.534 34.816 193.862 33.152C193.19 31.456 192.054 30.16 190.454 29.264C188.886 28.368 186.726 27.92 183.974 27.92H179.558V50.432Z" fill="url(#paint2_linear_2001_75)"/>
<path d="M230.233 43.7273C230.233 45.2803 229.949 46.6155 229.381 47.733C228.813 48.8456 228.034 49.7027 227.044 50.304C226.059 50.9006 224.939 51.1989 223.685 51.1989C222.425 51.1989 221.301 50.9006 220.311 50.304C219.326 49.7027 218.55 48.8433 217.982 47.7259C217.413 46.6084 217.129 45.2756 217.129 43.7273C217.129 42.1742 217.413 40.8414 217.982 39.7287C218.55 38.6113 219.326 37.7543 220.311 37.1577C221.301 36.5563 222.425 36.2557 223.685 36.2557C224.939 36.2557 226.059 36.5563 227.044 37.1577C228.034 37.7543 228.813 38.6113 229.381 39.7287C229.949 40.8414 230.233 42.1742 230.233 43.7273ZM228.06 43.7273C228.06 42.5436 227.868 41.5469 227.484 40.7372C227.106 39.9228 226.585 39.3073 225.922 38.8906C225.264 38.4692 224.518 38.2585 223.685 38.2585C222.847 38.2585 222.098 38.4692 221.44 38.8906C220.782 39.3073 220.261 39.9228 219.878 40.7372C219.499 41.5469 219.31 42.5436 219.31 43.7273C219.31 44.911 219.499 45.91 219.878 46.7244C220.261 47.5341 220.782 48.1496 221.44 48.571C222.098 48.9877 222.847 49.196 223.685 49.196C224.518 49.196 225.264 48.9877 225.922 48.571C226.585 48.1496 227.106 47.5341 227.484 46.7244C227.868 45.91 228.06 44.911 228.06 43.7273ZM232.593 51V49.5369L240.242 38.3438H232.529V36.4545H242.926V37.9176L235.277 49.1108H242.99V51H232.593Z" fill="url(#paint3_linear_2001_75)"/>
<g opacity="0.4">
<path d="M216.127 54.3595C217.143 53.9585 218.14 53.5205 219.127 53.0645C218.139 53.5305 217.142 53.9685 216.127 54.3595Z" fill="#1F1E21"/>
</g>
<g clip-path="url(#clip0_2001_75)">
<path d="M59 80V106H9.59396C4.29655 106 0 100.175 0 92.9939C0 89.4032 1.07437 86.1642 2.81565 83.8036C4.547 81.4565 6.94626 80 9.59496 80H59Z" fill="#17160F"/>
</g>
<defs>
<linearGradient id="paint0_linear_2001_75" x1="156" y1="0" x2="156" y2="80" gradientUnits="userSpaceOnUse">
<stop stop-color="#29271E"/>
<stop offset="1" stop-color="#1D1C18"/>
</linearGradient>
<linearGradient id="paint1_linear_2001_75" x1="126.5" y1="0" x2="126.5" y2="93" gradientUnits="userSpaceOnUse">
<stop stop-color="#29271E"/>
<stop offset="1" stop-color="#1D1C18"/>
</linearGradient>
<linearGradient id="paint2_linear_2001_75" x1="73.8286" y1="40.492" x2="200.6" y2="40.492" gradientUnits="userSpaceOnUse">
<stop stop-color="#FFEECC"/>
<stop offset="1" stop-color="#AD9515"/>
</linearGradient>
<linearGradient id="paint3_linear_2001_75" x1="217.243" y1="44.1905" x2="244.275" y2="44.1905" gradientUnits="userSpaceOnUse">
<stop stop-color="#FFEECC"/>
<stop offset="1" stop-color="#AD9515"/>
</linearGradient>
<clipPath id="clip0_2001_75">
<rect width="26" height="26" fill="white" transform="translate(0 80)"/>
</clipPath>
</defs>
</svg>
