<svg width="294" height="106" viewBox="0 0 294 106" fill="none" xmlns="http://www.w3.org/2000/svg">
<path d="M293.012 41.6362V80.0001H19.0117V10.2857C19.0117 4.60548 22.3776 6.11104e-05 26.5299 6.11104e-05H262.581C279.387 -0.00130629 293.012 18.6405 293.012 41.6362Z" fill="url(#paint0_linear_2003_75)"/>
<path opacity="0.2" d="M240.012 33.9999C238.048 37.7353 235.683 41.2255 232.963 44.3985C222.751 56.4114 207.667 63.9999 190.841 63.9999H11.0117C11.0117 63.9727 11.0203 63.9269 11.0203 63.8734C11.109 63.2838 11.5268 61.2443 12.1755 58.298H29.3299V33.9999H240.012Z" fill="#232013"/>
<path d="M253 3.05176e-05C253 0.679164 252.991 1.3583 252.981 2.02368C252.972 2.80455 252.944 3.57304 252.916 4.34291C252.897 4.82958 252.879 5.30387 252.851 5.77816C252.786 7.12268 252.693 8.45482 252.571 9.7746C252.534 10.1582 252.506 10.5555 252.459 10.9404C252.44 11.1452 252.422 11.3501 252.403 11.5425C252.356 11.9907 252.31 12.4141 252.254 12.8486C252.198 13.3737 252.133 13.8989 252.058 14.4117C251.984 15.0138 251.9 15.616 251.806 16.2181C251.713 16.8711 251.61 17.5255 251.499 18.1648C251.387 18.8178 251.275 19.4584 251.154 20.0991C251.033 20.7397 250.912 21.3804 250.781 22.021C250.25 24.5698 249.635 27.0678 248.935 29.5148C248.758 30.117 248.581 30.7191 248.395 31.3089C247.566 33.9993 246.634 36.6251 245.6 39.1615C245.423 39.6097 245.237 40.0579 245.05 40.4937C244.677 41.3777 244.286 42.2493 243.895 43.1071C243.69 43.5429 243.485 43.965 243.289 44.3884C243.084 44.8118 242.87 45.2339 242.665 45.6573C242.618 45.7467 242.572 45.8498 242.516 45.9391C242.171 46.6183 241.826 47.2974 241.463 47.9628C241.435 48.0137 241.398 48.0659 241.37 48.1291C240.968 48.8591 240.558 49.5891 240.139 50.3067C240.092 50.3837 240.055 50.4484 240.009 50.524C239.776 50.9213 239.543 51.3186 239.301 51.7021C238.602 52.8679 237.866 54.0076 237.102 55.1102C236.086 56.5839 235.043 58.0054 233.953 59.3761C233.571 59.8627 233.179 60.337 232.787 60.7976C232.638 60.9777 232.48 61.1564 232.331 61.3351C232.294 61.386 232.256 61.4245 232.219 61.4767C231.958 61.7709 231.697 62.0665 231.436 62.3607C230.868 63.0013 230.29 63.6296 229.694 64.2441C229.107 64.8462 228.511 65.4484 227.905 66.0244C227.299 66.6142 226.684 67.1779 226.06 67.7278C225.436 68.279 224.801 68.8042 224.158 69.3294C223.888 69.5466 223.608 69.7775 223.329 69.9824C223.282 70.0209 223.245 70.047 223.199 70.0855C222.873 70.3412 222.547 70.5845 222.221 70.8278C221.895 71.0712 221.569 71.3145 221.233 71.5455C220.907 71.7764 220.572 72.006 220.236 72.237C219.929 72.4418 219.612 72.6467 219.295 72.8639C219.239 72.89 219.193 72.9285 219.137 72.9532C218.149 73.5939 217.151 74.196 216.136 74.7336C215.857 74.8875 215.577 75.0415 215.297 75.1817C215.194 75.2326 215.092 75.2848 214.989 75.3481C214.672 75.502 214.346 75.6684 214.029 75.8224C212.948 76.3599 211.849 76.8466 210.73 77.2824C205.567 79.3321 200.115 80.4333 194.487 80.4333H9.6452C6.97987 80.4333 4.56658 81.9194 2.82336 84.3143C1.95625 85.5062 1.24814 86.9277 0.764074 88.4908C0.326018 89.8876 0.0650082 91.4108 0 93C0 91.4878 0.0279879 89.9893 0.083995 88.4908C0.083995 88.4523 0.0929988 88.3877 0.0929988 88.3121C0.186011 87.479 0.624065 84.5975 1.30415 80.4347C4.38854 61.3736 12.3005 15.374 12.3005 15.374C12.9906 11.7488 14.3508 8.55931 16.177 6.04899C16.6801 5.35748 17.2112 4.71684 17.7802 4.12707C18.4883 3.39707 19.2434 2.74406 20.0355 2.20515C22.0768 0.783646 24.3591 0.00140453 26.7634 0.00140453L253 3.05176e-05Z" fill="url(#paint1_linear_2003_75)"/>
<path d="M61.0597 56.576C57.8597 56.576 55.0757 55.872 52.7077 54.464C50.3397 53.024 48.4997 51.024 47.1877 48.464C45.8757 45.872 45.2197 42.864 45.2197 39.44C45.2197 35.984 45.8917 32.944 47.2357 30.32C48.5797 27.664 50.5157 25.584 53.0437 24.08C55.5717 22.576 58.5957 21.824 62.1157 21.824C66.0517 21.824 69.3157 22.768 71.9077 24.656C74.5317 26.544 76.2277 29.168 76.9957 32.528H69.7477C69.2677 31.056 68.3717 29.904 67.0597 29.072C65.7797 28.208 64.1157 27.776 62.0677 27.776C59.8917 27.776 58.0357 28.256 56.4997 29.216C54.9637 30.176 53.7957 31.52 52.9957 33.248C52.1957 34.976 51.7957 37.04 51.7957 39.44C51.7957 41.872 52.1957 43.936 52.9957 45.632C53.7957 47.328 54.9317 48.624 56.4037 49.52C57.9077 50.384 59.6677 50.816 61.6837 50.816C64.6277 50.816 66.8517 50.032 68.3557 48.464C69.8917 46.864 70.8037 44.8 71.0917 42.272H62.8357V37.424H77.6197V56H71.6197L71.1397 51.728C70.4357 52.784 69.6037 53.68 68.6437 54.416C67.7157 55.12 66.6277 55.648 65.3797 56C64.1317 56.384 62.6917 56.576 61.0597 56.576ZM99.1871 56.576C95.9231 56.576 93.0431 55.84 90.5471 54.368C88.0511 52.896 86.0991 50.864 84.6911 48.272C83.2831 45.648 82.5791 42.624 82.5791 39.2C82.5791 35.776 83.2831 32.768 84.6911 30.176C86.0991 27.552 88.0511 25.504 90.5471 24.032C93.0431 22.56 95.9231 21.824 99.1871 21.824C102.483 21.824 105.379 22.56 107.875 24.032C110.371 25.504 112.307 27.552 113.683 30.176C115.091 32.768 115.795 35.776 115.795 39.2C115.795 42.624 115.091 45.648 113.683 48.272C112.307 50.864 110.371 52.896 107.875 54.368C105.379 55.84 102.483 56.576 99.1871 56.576ZM99.1871 50.768C101.235 50.768 102.995 50.304 104.467 49.376C105.971 48.416 107.139 47.072 107.971 45.344C108.803 43.616 109.219 41.568 109.219 39.2C109.219 36.8 108.803 34.752 107.971 33.056C107.139 31.328 105.971 30 104.467 29.072C102.995 28.144 101.235 27.68 99.1871 27.68C97.1711 27.68 95.4111 28.144 93.9071 29.072C92.4031 30 91.2351 31.328 90.4031 33.056C89.5711 34.752 89.1551 36.8 89.1551 39.2C89.1551 41.568 89.5711 43.616 90.4031 45.344C91.2351 47.072 92.4031 48.416 93.9071 49.376C95.4111 50.304 97.1711 50.768 99.1871 50.768ZM120.172 56V22.4H126.652V50.96H141.388V56H120.172ZM148.089 56V22.4H159.321C163.225 22.4 166.441 23.104 168.969 24.512C171.529 25.888 173.417 27.84 174.633 30.368C175.881 32.864 176.505 35.808 176.505 39.2C176.505 42.592 175.881 45.552 174.633 48.08C173.417 50.576 171.545 52.528 169.017 53.936C166.489 55.312 163.257 56 159.321 56H148.089ZM154.569 50.432H158.985C161.737 50.432 163.897 49.984 165.465 49.088C167.065 48.192 168.201 46.912 168.873 45.248C169.545 43.552 169.881 41.536 169.881 39.2C169.881 36.832 169.545 34.816 168.873 33.152C168.201 31.456 167.065 30.16 165.465 29.264C163.897 28.368 161.737 27.92 158.985 27.92H154.569V50.432Z" fill="url(#paint2_linear_2003_75)"/>
<path d="M205.245 43.7273C205.245 45.2803 204.961 46.6155 204.392 47.733C203.824 48.8456 203.045 49.7027 202.056 50.304C201.071 50.9006 199.951 51.1989 198.696 51.1989C197.437 51.1989 196.312 50.9006 195.323 50.304C194.338 49.7027 193.561 48.8433 192.993 47.7259C192.425 46.6084 192.141 45.2756 192.141 43.7273C192.141 42.1742 192.425 40.8414 192.993 39.7287C193.561 38.6113 194.338 37.7543 195.323 37.1577C196.312 36.5563 197.437 36.2557 198.696 36.2557C199.951 36.2557 201.071 36.5563 202.056 37.1577C203.045 37.7543 203.824 38.6113 204.392 39.7287C204.961 40.8414 205.245 42.1742 205.245 43.7273ZM203.071 43.7273C203.071 42.5436 202.88 41.5469 202.496 40.7372C202.117 39.9228 201.596 39.3073 200.934 38.8906C200.275 38.4692 199.53 38.2585 198.696 38.2585C197.858 38.2585 197.11 38.4692 196.452 38.8906C195.794 39.3073 195.273 39.9228 194.89 40.7372C194.511 41.5469 194.321 42.5436 194.321 43.7273C194.321 44.911 194.511 45.91 194.89 46.7244C195.273 47.5341 195.794 48.1496 196.452 48.571C197.11 48.9877 197.858 49.196 198.696 49.196C199.53 49.196 200.275 48.9877 200.934 48.571C201.596 48.1496 202.117 47.5341 202.496 46.7244C202.88 45.91 203.071 44.911 203.071 43.7273ZM207.604 51V49.5369L215.254 38.3438H207.54V36.4545H217.938V37.9176L210.289 49.1108H218.002V51H207.604Z" fill="url(#paint3_linear_2003_75)"/>
<path opacity="0.4" d="M252.988 0C252.988 0.494 252.979 0.988 252.969 1.472C252.96 2.04 252.932 2.599 252.904 3.159C252.885 3.513 252.867 3.858 252.839 4.203C252.774 5.181 252.681 6.15 252.559 7.11C252.522 7.389 252.494 7.678 252.447 7.958C251.873 12.545 250.657 17.184 248.925 21.468C248.748 21.906 248.571 22.344 248.385 22.773C247.556 24.73 246.624 26.64 245.59 28.485C245.413 28.811 245.227 29.137 245.04 29.454C244.667 30.097 244.276 30.731 243.885 31.355C243.68 31.672 243.475 31.979 243.279 32.287C243.074 32.595 242.86 32.902 242.655 33.21C241.816 34.421 240.931 35.605 239.999 36.751C239.766 37.04 239.533 37.329 239.291 37.608C238.583 38.456 237.847 39.285 237.092 40.087C236.076 41.159 235.033 42.193 233.942 43.19C229.826 46.945 225.205 50.055 220.226 52.545C219.919 52.694 219.602 52.843 219.285 53.001C219.229 53.02 219.183 53.048 219.127 53.066C218.139 53.523 217.142 53.96 216.127 54.361C215.848 54.473 215.568 54.585 215.288 54.687C215.185 54.724 215.083 54.762 214.98 54.808C214.663 54.92 214.337 55.041 214.02 55.153C230.213 46.91 242.052 31.341 245.18 12.811C246.045 7.687 242.136 3.001 236.939 3.001H17.7983C20.3233 1.1 23.4453 0.000999451 26.7803 0.000999451L252.988 0Z" fill="#2B2A23"/>
<g opacity="0.4">
<path d="M216.128 54.3601C217.144 53.9591 218.141 53.5211 219.128 53.0651C218.14 53.5311 217.143 53.9691 216.128 54.3601Z" fill="#1F1E21"/>
</g>
<g clip-path="url(#clip0_2003_75)">
<path d="M59 80.0001V106H9.59396C4.29655 106 0 100.175 0 92.994C0 89.4033 1.07437 86.1643 2.81565 83.8037C4.547 81.4566 6.94626 80.0001 9.59496 80.0001H59Z" fill="url(#paint4_linear_2003_75)"/>
</g>
<defs>
<linearGradient id="paint0_linear_2003_75" x1="156.012" y1="6.10352e-05" x2="156.012" y2="80.0001" gradientUnits="userSpaceOnUse">
<stop stop-color="#1D1A08"/>
<stop offset="1" stop-color="#0F0E09"/>
</linearGradient>
<linearGradient id="paint1_linear_2003_75" x1="126.5" y1="3.05176e-05" x2="126.5" y2="93" gradientUnits="userSpaceOnUse">
<stop stop-color="#1D1A08"/>
<stop offset="1" stop-color="#0F0E09"/>
</linearGradient>
<linearGradient id="paint2_linear_2003_75" x1="48.8403" y1="40.4921" x2="175.612" y2="40.4921" gradientUnits="userSpaceOnUse">
<stop stop-color="#FFEECC"/>
<stop offset="1" stop-color="#AD9515"/>
</linearGradient>
<linearGradient id="paint3_linear_2003_75" x1="192.255" y1="44.1905" x2="219.287" y2="44.1905" gradientUnits="userSpaceOnUse">
<stop stop-color="#FFEECC"/>
<stop offset="1" stop-color="#AD9515"/>
</linearGradient>
<linearGradient id="paint4_linear_2003_75" x1="29.5" y1="80.0001" x2="29.5" y2="122.5" gradientUnits="userSpaceOnUse">
<stop stop-color="#1D1A08"/>
<stop offset="1" stop-color="#0F0E09"/>
</linearGradient>
<clipPath id="clip0_2003_75">
<rect width="26" height="26" fill="white" transform="translate(0 80.0001)"/>
</clipPath>
</defs>
</svg>
