<svg width="293" height="106" viewBox="0 0 293 106" fill="none" xmlns="http://www.w3.org/2000/svg">
<path d="M293.008 41.6361V80H19.0112V10.2856C19.0112 4.60542 22.377 7.5221e-08 26.5293 7.5221e-08H262.578C279.384 -0.00136733 293.008 18.6405 293.008 41.6361Z" fill="url(#paint0_linear_2003_96)"/>
<path opacity="0.2" d="M240.009 34C238.045 37.7354 235.68 41.2256 232.96 44.3986C222.748 56.4115 207.665 64 190.839 64H11.0117C11.0117 63.9728 11.0203 63.927 11.0203 63.8735C11.109 63.2839 11.5268 61.2444 12.1755 58.2981H29.3296V34H240.009Z" fill="#232013"/>
<path d="M252.997 2.28882e-05C252.997 0.679156 252.988 1.35829 252.978 2.02368C252.969 2.80454 252.941 3.57303 252.913 4.3429C252.894 4.82957 252.876 5.30386 252.848 5.77816C252.783 7.12267 252.69 8.45482 252.568 9.77459C252.531 10.1581 252.503 10.5555 252.456 10.9404C252.437 11.1452 252.419 11.3501 252.4 11.5425C252.353 11.9907 252.307 12.4141 252.251 12.8486C252.195 13.3737 252.13 13.8989 252.055 14.4117C251.981 15.0138 251.897 15.616 251.803 16.2181C251.71 16.8711 251.607 17.5255 251.496 18.1648C251.384 18.8178 251.271 19.4584 251.15 20.0991C251.029 20.7397 250.908 21.3803 250.777 22.021C250.246 24.5698 249.631 27.0677 248.932 29.5148C248.755 30.117 248.578 30.7191 248.392 31.3089C247.563 33.9993 246.631 36.6251 245.597 39.1615C245.42 39.6097 245.234 40.0579 245.047 40.4937C244.674 41.3777 244.283 42.2493 243.892 43.1071C243.687 43.5429 243.482 43.965 243.286 44.3884C243.081 44.8118 242.867 45.2339 242.662 45.6573C242.615 45.7467 242.569 45.8498 242.513 45.9391C242.167 46.6183 241.822 47.2974 241.459 47.9628C241.431 48.0136 241.394 48.0659 241.366 48.1291C240.965 48.8591 240.555 49.5891 240.136 50.3067C240.089 50.3837 240.052 50.4483 240.006 50.524C239.773 50.9213 239.54 51.3186 239.298 51.7021C238.599 52.8679 237.863 54.0076 237.099 55.1102C236.083 56.5839 235.04 58.0054 233.95 59.3761C233.568 59.8627 233.176 60.337 232.784 60.7976C232.635 60.9777 232.477 61.1564 232.328 61.3351C232.291 61.386 232.253 61.4245 232.216 61.4767C231.955 61.7709 231.694 62.0665 231.433 62.3607C230.865 63.0013 230.287 63.6296 229.691 64.2441C229.104 64.8462 228.508 65.4484 227.902 66.0244C227.296 66.6142 226.681 67.1778 226.057 67.7278C225.433 68.279 224.798 68.8042 224.155 69.3294C223.885 69.5466 223.605 69.7775 223.326 69.9824C223.279 70.0209 223.242 70.047 223.196 70.0855C222.87 70.3412 222.544 70.5845 222.218 70.8278C221.892 71.0712 221.566 71.3145 221.23 71.5455C220.904 71.7764 220.569 72.006 220.233 72.237C219.926 72.4418 219.609 72.6467 219.292 72.8639C219.236 72.89 219.19 72.9285 219.134 72.9532C218.146 73.5939 217.149 74.196 216.133 74.7336C215.854 74.8875 215.574 75.0415 215.294 75.1817C215.191 75.2326 215.089 75.2848 214.986 75.3481C214.669 75.502 214.343 75.6684 214.026 75.8224C212.945 76.3599 211.846 76.8466 210.727 77.2824C205.564 79.3321 200.113 80.4333 194.484 80.4333H9.64508C6.97977 80.4333 4.56652 81.9194 2.82332 84.3143C1.95622 85.5062 1.24812 86.9277 0.764064 88.4908C0.326014 89.8876 0.0650074 91.4108 0 93C0 91.4878 0.0279875 89.9893 0.0839939 88.4908C0.0839939 88.4523 0.0929976 88.3877 0.0929976 88.3121C0.186008 87.479 0.624056 84.5975 1.30413 80.4347C4.38848 61.3736 12.3004 15.374 12.3004 15.374C12.9905 11.7488 14.3506 8.5593 16.1768 6.04898C16.6799 5.35748 17.2109 4.71684 17.78 4.12706C18.4881 3.39706 19.2432 2.74405 20.0353 2.20514C22.0765 0.783638 24.3587 0.0013969 26.763 0.0013969L252.997 2.28882e-05Z" fill="url(#paint1_linear_2003_96)"/>
<path d="M57.9317 56.576C55.4997 56.576 53.3237 56.16 51.4037 55.328C49.5157 54.496 48.0277 53.28 46.9397 51.68C45.8517 50.08 45.2757 48.144 45.2117 45.872H52.0757C52.1077 46.864 52.3477 47.76 52.7957 48.56C53.2757 49.36 53.9477 50 54.8117 50.48C55.6757 50.928 56.7157 51.152 57.9317 51.152C58.9237 51.152 59.8037 51.008 60.5717 50.72C61.3397 50.4 61.9317 49.952 62.3477 49.376C62.7957 48.768 63.0197 48.016 63.0197 47.12C63.0197 46.16 62.7797 45.36 62.2997 44.72C61.8517 44.08 61.2117 43.536 60.3797 43.088C59.5477 42.608 58.6037 42.192 57.5477 41.84C56.5237 41.456 55.4517 41.072 54.3317 40.688C51.6117 39.76 49.5317 38.56 48.0917 37.088C46.6837 35.616 45.9797 33.68 45.9797 31.28C45.9797 29.328 46.4597 27.648 47.4197 26.24C48.3797 24.832 49.7237 23.744 51.4517 22.976C53.1797 22.208 55.1477 21.824 57.3557 21.824C59.6277 21.824 61.6277 22.224 63.3557 23.024C65.0837 23.792 66.4437 24.912 67.4357 26.384C68.4277 27.856 68.9557 29.584 69.0197 31.568H62.0597C62.0277 30.704 61.8037 29.952 61.3877 29.312C61.0037 28.672 60.4437 28.16 59.7077 27.776C59.0037 27.392 58.1717 27.2 57.2117 27.2C56.3797 27.168 55.6117 27.296 54.9077 27.584C54.2357 27.84 53.7077 28.24 53.3237 28.784C52.9397 29.296 52.7477 29.984 52.7477 30.848C52.7477 31.648 52.9237 32.32 53.2757 32.864C53.6597 33.408 54.1877 33.888 54.8597 34.304C55.5637 34.688 56.3797 35.072 57.3077 35.456C58.2677 35.808 59.3397 36.192 60.5237 36.608C62.2197 37.184 63.7717 37.872 65.1797 38.672C66.5877 39.44 67.7077 40.448 68.5397 41.696C69.4037 42.944 69.8357 44.56 69.8357 46.544C69.8357 48.336 69.3717 50 68.4437 51.536C67.5477 53.04 66.2197 54.256 64.4597 55.184C62.6997 56.112 60.5237 56.576 57.9317 56.576ZM73.2186 56V22.4H79.6986V56H73.2186ZM83.9998 56V22.4H90.4798V50.96H105.216V56H83.9998ZM111.064 56L100.408 22.4H107.224L116.344 51.968H116.536L125.464 22.4H132.28L121.672 56H111.064ZM134.672 56V22.4H156.8V27.632H141.152V36.416H155.36V41.456H141.152V50.768H156.8V56H134.672ZM160.406 56V22.4H172.982C175.67 22.4 177.894 22.864 179.654 23.792C181.446 24.72 182.774 25.968 183.638 27.536C184.502 29.072 184.934 30.784 184.934 32.672C184.934 34.464 184.502 36.144 183.638 37.712C182.806 39.248 181.494 40.496 179.702 41.456C177.942 42.384 175.67 42.848 172.886 42.848H166.886V56H160.406ZM177.83 56L170.918 41.216H177.926L185.222 56H177.83ZM166.886 38.144H172.55C174.534 38.144 175.99 37.664 176.918 36.704C177.846 35.744 178.31 34.48 178.31 32.912C178.31 31.344 177.846 30.112 176.918 29.216C175.99 28.288 174.534 27.824 172.55 27.824H166.886V38.144Z" fill="url(#paint2_linear_2003_96)"/>
<path d="M205.832 52.24C204.472 52.24 203.272 51.94 202.232 51.34C201.205 50.7267 200.398 49.88 199.812 48.8C199.238 47.7067 198.952 46.44 198.952 45C198.952 43.5734 199.238 42.32 199.812 41.24C200.398 40.1467 201.205 39.2934 202.232 38.68C203.272 38.0667 204.472 37.76 205.832 37.76C207.218 37.76 208.425 38.0667 209.452 38.68C210.492 39.2934 211.298 40.1467 211.872 41.24C212.445 42.32 212.732 43.5734 212.732 45C212.732 46.44 212.445 47.7067 211.872 48.8C211.298 49.88 210.492 50.7267 209.452 51.34C208.425 51.94 207.218 52.24 205.832 52.24ZM205.832 50.46C206.805 50.46 207.658 50.24 208.392 49.8C209.125 49.36 209.692 48.7334 210.092 47.92C210.492 47.1067 210.692 46.1334 210.692 45C210.692 43.8667 210.492 42.8934 210.092 42.08C209.692 41.2667 209.125 40.6467 208.392 40.22C207.658 39.78 206.805 39.56 205.832 39.56C204.872 39.56 204.025 39.78 203.292 40.22C202.572 40.6467 202.005 41.2667 201.592 42.08C201.192 42.8934 200.992 43.8667 200.992 45C200.992 46.1334 201.192 47.1067 201.592 47.92C202.005 48.7334 202.572 49.36 203.292 49.8C204.025 50.24 204.872 50.46 205.832 50.46ZM214.576 52V50.44L221.356 39.7H214.676V38H223.676V39.56L216.876 50.3H223.736V52H214.576Z" fill="url(#paint3_linear_2003_96)"/>
<path opacity="0.4" d="M252.985 2.28882e-05C252.985 0.494023 252.976 0.988023 252.966 1.47202C252.957 2.04002 252.929 2.59902 252.901 3.15902C252.882 3.51302 252.864 3.85802 252.836 4.20302C252.771 5.18102 252.678 6.15002 252.556 7.11002C252.519 7.38902 252.491 7.67802 252.444 7.95802C251.87 12.545 250.654 17.184 248.922 21.468C248.745 21.906 248.568 22.344 248.382 22.773C247.553 24.73 246.621 26.64 245.587 28.485C245.41 28.811 245.224 29.137 245.037 29.454C244.664 30.097 244.273 30.731 243.882 31.355C243.677 31.672 243.472 31.979 243.276 32.287C243.071 32.595 242.857 32.902 242.652 33.21C241.813 34.421 240.928 35.605 239.996 36.751C239.763 37.04 239.53 37.329 239.288 37.608C238.58 38.456 237.844 39.285 237.089 40.087C236.073 41.159 235.03 42.193 233.939 43.19C229.824 46.945 225.203 50.055 220.224 52.545C219.917 52.694 219.6 52.843 219.283 53.001C219.227 53.02 219.181 53.048 219.125 53.066C218.137 53.523 217.14 53.96 216.125 54.361C215.846 54.473 215.566 54.585 215.286 54.687C215.183 54.724 215.081 54.762 214.978 54.808C214.661 54.92 214.335 55.041 214.018 55.153C230.211 46.91 242.049 31.341 245.177 12.811C246.042 7.68702 242.133 3.00102 236.936 3.00102H17.7983C20.3233 1.10002 23.4453 0.00102234 26.7802 0.00102234L252.985 2.28882e-05Z" fill="#363131"/>
<g opacity="0.4">
<path d="M216.121 54.3604C217.137 53.9594 218.134 53.5214 219.121 53.0654C218.133 53.5314 217.136 53.9694 216.121 54.3604Z" fill="#1F1E21"/>
</g>
<g clip-path="url(#clip0_2003_96)">
<path d="M59 80V106H9.59396C4.29655 106 0 100.175 0 92.9939C0 89.4032 1.07437 86.1642 2.81565 83.8036C4.547 81.4565 6.94626 80 9.59496 80H59Z" fill="url(#paint4_linear_2003_96)"/>
</g>
<defs>
<linearGradient id="paint0_linear_2003_96" x1="156.009" y1="0" x2="156.009" y2="80" gradientUnits="userSpaceOnUse">
<stop stop-color="#211C1C"/>
<stop offset="1" stop-color="#1A1414"/>
</linearGradient>
<linearGradient id="paint1_linear_2003_96" x1="126.498" y1="2.28882e-05" x2="126.498" y2="93" gradientUnits="userSpaceOnUse">
<stop stop-color="#211C1C"/>
<stop offset="1" stop-color="#1A1414"/>
</linearGradient>
<linearGradient id="paint2_linear_2003_96" x1="50.0974" y1="40.4921" x2="182.462" y2="40.4921" gradientUnits="userSpaceOnUse">
<stop stop-color="#D0D0D0"/>
<stop offset="1" stop-color="#8A8A8A"/>
</linearGradient>
<linearGradient id="paint3_linear_2003_96" x1="199.169" y1="45.2064" x2="224.337" y2="45.2064" gradientUnits="userSpaceOnUse">
<stop stop-color="#D0D0D0"/>
<stop offset="1" stop-color="#8A8A8A"/>
</linearGradient>
<linearGradient id="paint4_linear_2003_96" x1="29.5" y1="80" x2="29.5" y2="122.5" gradientUnits="userSpaceOnUse">
<stop stop-color="#211C1C"/>
<stop offset="1" stop-color="#1A1414"/>
</linearGradient>
<clipPath id="clip0_2003_96">
<rect width="26" height="26" fill="white" transform="translate(0 80)"/>
</clipPath>
</defs>
</svg>
