<svg width="293" height="106" viewBox="0 0 293 106" fill="none" xmlns="http://www.w3.org/2000/svg">
<path d="M292.996 41.6361V80H19V10.2856C19 4.60542 22.3658 7.5221e-08 26.5181 7.5221e-08H262.566C279.372 -0.00136733 292.996 18.6405 292.996 41.6361Z" fill="url(#paint0_linear_2001_56)"/>
<path opacity="0.2" d="M240.009 34C238.045 37.7354 235.68 41.2256 232.96 44.3986C222.748 56.4115 207.665 64 190.839 64H11.0117C11.0117 63.9728 11.0203 63.927 11.0203 63.8735C11.109 63.2839 11.5268 61.2444 12.1755 58.2981H29.3296V34H240.009Z" fill="#232013"/>
<path d="M252.997 0C252.997 0.679133 252.988 1.35827 252.978 2.02365C252.969 2.80452 252.941 3.57301 252.913 4.34288C252.894 4.82955 252.876 5.30384 252.848 5.77813C252.783 7.12265 252.69 8.45479 252.568 9.77457C252.531 10.1581 252.503 10.5554 252.456 10.9404C252.437 11.1452 252.419 11.35 252.4 11.5425C252.353 11.9907 252.307 12.4141 252.251 12.8485C252.195 13.3737 252.13 13.8989 252.055 14.4116C251.981 15.0138 251.897 15.6159 251.803 16.2181C251.71 16.8711 251.607 17.5255 251.496 18.1648C251.384 18.8178 251.271 19.4584 251.15 20.099C251.029 20.7397 250.908 21.3803 250.777 22.021C250.246 24.5698 249.631 27.0677 248.932 29.5148C248.755 30.1169 248.578 30.7191 248.392 31.3089C247.563 33.9993 246.631 36.6251 245.597 39.1615C245.42 39.6097 245.234 40.0579 245.047 40.4937C244.674 41.3776 244.283 42.2492 243.892 43.1071C243.687 43.5429 243.482 43.9649 243.286 44.3884C243.081 44.8118 242.867 45.2338 242.662 45.6573C242.615 45.7466 242.569 45.8497 242.513 45.9391C242.167 46.6182 241.822 47.2974 241.459 47.9628C241.431 48.0136 241.394 48.0659 241.366 48.1291C240.965 48.8591 240.555 49.5891 240.136 50.3067C240.089 50.3837 240.052 50.4483 240.006 50.5239C239.773 50.9212 239.54 51.3185 239.298 51.7021C238.599 52.8679 237.863 54.0076 237.099 55.1101C236.083 56.5839 235.04 58.0054 233.95 59.376C233.568 59.8627 233.176 60.337 232.784 60.7975C232.635 60.9776 232.477 61.1564 232.328 61.3351C232.291 61.3859 232.253 61.4244 232.216 61.4767C231.955 61.7709 231.694 62.0665 231.433 62.3607C230.865 63.0013 230.287 63.6296 229.691 64.2441C229.104 64.8462 228.508 65.4484 227.902 66.0244C227.296 66.6142 226.681 67.1778 226.057 67.7277C225.433 68.279 224.798 68.8042 224.155 69.3293C223.885 69.5465 223.605 69.7775 223.326 69.9823C223.279 70.0208 223.242 70.0469 223.196 70.0854C222.87 70.3411 222.544 70.5845 222.218 70.8278C221.892 71.0711 221.566 71.3145 221.23 71.5454C220.904 71.7764 220.569 72.006 220.233 72.237C219.926 72.4418 219.609 72.6466 219.292 72.8638C219.236 72.89 219.19 72.9285 219.134 72.9532C218.146 73.5938 217.149 74.196 216.134 74.7335C215.854 74.8875 215.574 75.0415 215.294 75.1817C215.191 75.2326 215.089 75.2848 214.986 75.348C214.669 75.502 214.343 75.6684 214.026 75.8223C212.945 76.3599 211.846 76.8465 210.727 77.2823C205.564 79.3321 200.113 80.4333 194.484 80.4333H9.64508C6.97977 80.4333 4.56652 81.9194 2.82332 84.3142C1.95622 85.5062 1.24812 86.9277 0.764064 88.4908C0.326014 89.8875 0.0650074 91.4108 0 93C0 91.4878 0.0279875 89.9893 0.0839939 88.4908C0.0839939 88.4523 0.0929976 88.3877 0.0929976 88.3121C0.186008 87.479 0.624056 84.5974 1.30413 80.4347C4.38848 61.3736 12.3004 15.374 12.3004 15.374C12.9905 11.7487 14.3506 8.55928 16.1768 6.04896C16.6799 5.35745 17.2109 4.71681 17.78 4.12704C18.4881 3.39704 19.2432 2.74403 20.0353 2.20512C22.0765 0.783615 24.3587 0.00137401 26.763 0.00137401L252.997 0Z" fill="url(#paint1_linear_2001_56)"/>
<path d="M73.88 56.576C71.448 56.576 69.272 56.16 67.352 55.328C65.464 54.496 63.96 53.28 62.84 51.68C61.752 50.08 61.192 48.144 61.16 45.872H68.024C68.056 46.864 68.312 47.76 68.792 48.56C69.272 49.36 69.928 50 70.76 50.48C71.624 50.928 72.648 51.152 73.832 51.152C74.856 51.152 75.736 50.992 76.472 50.672C77.24 50.32 77.832 49.84 78.248 49.232C78.664 48.624 78.872 47.904 78.872 47.072C78.872 46.112 78.632 45.312 78.152 44.672C77.704 44.032 77.064 43.488 76.232 43.04C75.432 42.592 74.488 42.192 73.4 41.84C72.344 41.456 71.224 41.056 70.04 40.64C67.384 39.776 65.352 38.624 63.944 37.184C62.568 35.744 61.88 33.84 61.88 31.472C61.88 29.456 62.36 27.728 63.32 26.288C64.312 24.848 65.672 23.744 67.4 22.976C69.128 22.208 71.096 21.824 73.304 21.824C75.576 21.824 77.56 22.224 79.256 23.024C80.984 23.792 82.344 24.912 83.336 26.384C84.36 27.856 84.888 29.584 84.92 31.568H78.008C77.976 30.832 77.752 30.144 77.336 29.504C76.952 28.832 76.408 28.304 75.704 27.92C75 27.504 74.168 27.296 73.208 27.296C72.376 27.264 71.608 27.392 70.904 27.68C70.232 27.968 69.688 28.4 69.272 28.976C68.888 29.52 68.696 30.208 68.696 31.04C68.696 31.84 68.888 32.512 69.272 33.056C69.688 33.6 70.248 34.08 70.952 34.496C71.656 34.88 72.488 35.248 73.448 35.6C74.408 35.92 75.448 36.256 76.568 36.608C78.232 37.184 79.768 37.872 81.176 38.672C82.584 39.44 83.704 40.448 84.536 41.696C85.368 42.944 85.784 44.592 85.784 46.64C85.784 48.4 85.32 50.032 84.392 51.536C83.464 53.04 82.12 54.256 80.36 55.184C78.632 56.112 76.472 56.576 73.88 56.576ZM91.2808 56V22.4H97.7608V56H91.2808ZM104.359 56V22.4H110.839V50.96H125.575V56H104.359ZM135.007 56L122.767 22.4H129.679L138.991 49.376L148.351 22.4H155.215L142.975 56H135.007ZM159.25 56V22.4H181.33V27.632H165.73V36.416H179.89V41.456H165.73V50.768H181.33V56H159.25ZM187.234 56V22.4H199.762C202.482 22.4 204.722 22.864 206.482 23.792C208.242 24.72 209.554 25.968 210.418 27.536C211.282 29.072 211.714 30.784 211.714 32.672C211.714 34.464 211.298 36.144 210.466 37.712C209.634 39.248 208.322 40.496 206.53 41.456C204.77 42.384 202.498 42.848 199.714 42.848H193.714V56H187.234ZM204.658 56L197.746 41.216H204.754L212.05 56H204.658ZM193.714 38.144H199.378C201.33 38.144 202.77 37.664 203.698 36.704C204.626 35.744 205.09 34.48 205.09 32.912C205.09 31.344 204.626 30.112 203.698 29.216C202.802 28.288 201.362 27.824 199.378 27.824H193.714V38.144Z" fill="url(#paint2_linear_2001_56)"/>
<path d="M234.76 52.24C233.413 52.24 232.227 51.94 231.2 51.34C230.187 50.7267 229.387 49.88 228.8 48.8C228.227 47.7067 227.94 46.44 227.94 45C227.94 43.5733 228.227 42.32 228.8 41.24C229.387 40.1467 230.187 39.2933 231.2 38.68C232.227 38.0667 233.413 37.76 234.76 37.76C236.133 37.76 237.333 38.0667 238.36 38.68C239.387 39.2933 240.18 40.1467 240.74 41.24C241.313 42.32 241.6 43.5733 241.6 45C241.6 46.44 241.313 47.7067 240.74 48.8C240.18 49.88 239.387 50.7267 238.36 51.34C237.333 51.94 236.133 52.24 234.76 52.24ZM234.78 50.46C235.74 50.46 236.58 50.24 237.3 49.8C238.02 49.36 238.573 48.7333 238.96 47.92C239.36 47.1067 239.56 46.1333 239.56 45C239.56 43.8667 239.36 42.8933 238.96 42.08C238.573 41.2667 238.02 40.6467 237.3 40.22C236.58 39.78 235.74 39.56 234.78 39.56C233.82 39.56 232.98 39.78 232.26 40.22C231.54 40.6467 230.98 41.2667 230.58 42.08C230.18 42.8933 229.98 43.8667 229.98 45C229.98 46.1333 230.18 47.1067 230.58 47.92C230.98 48.7333 231.54 49.36 232.26 49.8C232.98 50.24 233.82 50.46 234.78 50.46ZM243.467 52V50.44L250.287 39.7H243.547V38H252.607V39.56L245.767 50.3H252.667V52H243.467Z" fill="url(#paint3_linear_2001_56)"/>
<g opacity="0.4">
<path d="M216.121 54.3614C217.137 53.9604 218.134 53.5224 219.121 53.0664C218.133 53.5324 217.136 53.9704 216.121 54.3614Z" fill="#1F1E21"/>
</g>
<g clip-path="url(#clip0_2001_56)">
<path d="M59 80V106H9.59396C4.29655 106 0 100.175 0 92.9939C0 89.4032 1.07437 86.1642 2.81565 83.8036C4.547 81.4565 6.94626 80 9.59496 80H59Z" fill="#1E1D1D"/>
</g>
<defs>
<linearGradient id="paint0_linear_2001_56" x1="155.998" y1="0" x2="155.998" y2="80" gradientUnits="userSpaceOnUse">
<stop stop-color="#191919"/>
<stop offset="1" stop-color="#292929"/>
</linearGradient>
<linearGradient id="paint1_linear_2001_56" x1="126.498" y1="0" x2="126.498" y2="93" gradientUnits="userSpaceOnUse">
<stop stop-color="#191919"/>
<stop offset="1" stop-color="#292929"/>
</linearGradient>
<linearGradient id="paint2_linear_2001_56" x1="65.6857" y1="40.492" x2="211.1" y2="40.492" gradientUnits="userSpaceOnUse">
<stop stop-color="#D0D0D0"/>
<stop offset="1" stop-color="#8A8A8A"/>
</linearGradient>
<linearGradient id="paint3_linear_2001_56" x1="228.157" y1="45.2063" x2="253.325" y2="45.2063" gradientUnits="userSpaceOnUse">
<stop stop-color="#D0D0D0"/>
<stop offset="1" stop-color="#8A8A8A"/>
</linearGradient>
<clipPath id="clip0_2001_56">
<rect width="26" height="26" fill="white" transform="translate(0 80)"/>
</clipPath>
</defs>
</svg>
