<svg width="79" height="133" viewBox="0 0 79 133" fill="none" xmlns="http://www.w3.org/2000/svg">
<path d="M47.2637 131.869C46.6895 130.413 46.0498 128.335 45.8404 125.789C44.9145 119.447 49.6019 109.081 53.7395 104.667" stroke="url(#paint0_linear_524_1712)" stroke-width="2.79069"/>
<path d="M36.2677 10.4442C35.9036 8.01521 34.5539 4.02307 31.6677 1.92609C30.9329 2.87929 29.8203 4.28165 28.397 5.91895C25.3579 9.41501 22.8835 11.7451 21.4853 13.0282C18.1415 16.0973 14.3104 19.6134 11.2826 23.5753C4.09929 32.5066 -0.575 45.3827 2.2129 56.9424C2.94656 60.2439 6.79179 69.5432 11.6095 75.3246C15.3674 79.8347 15.3692 80.6271 25.075 89.1405C27.4452 91.2193 34.1596 97.8216 36.2677 102.449" stroke="url(#paint1_linear_524_1712)" stroke-width="2.79069"/>
<path d="M55.7751 14.5108C59.6717 18.2433 67.23 21.947 71.9418 29.4669C80.153 42.4899 78.6798 56.7906 69.1008 68.627C65.4165 73.3083 61.0152 77.3386 56.7578 81.521C50.9108 87.1966 45.2531 93.3221 39.915 99.3726" stroke="url(#paint2_linear_524_1712)" stroke-width="2.79069"/>
<path d="M15.1157 89.5101C19.9684 93.5554 25.5908 97.7326 29.3621 102.632C34.2578 109.236 38.5076 116.499 42.6255 123.707" stroke="url(#paint3_linear_524_1712)" stroke-width="2.79069"/>
<path d="M39.2716 114.201C38.7993 108.327 39.5075 103.388 39.8771 99.7356C40.4367 94.2087 40.8856 90.1864 43.3855 85.7636C45.8847 81.7308 54.7053 71.635 56.2218 69.4907C65.2114 56.6549 67.688 38.3905 59.9247 21.4931C57.7448 17.0951 49.9972 5.71335 47.431 2.15181C38.6704 7.42956 24.5318 19.7442 19.181 32.0955C11.1796 51.8838 17.93 69.7591 27.0797 79.8465C27.532 80.2841 28.7411 81.4086 30.0424 83.216C30.6359 84.0409 32.846 87.2264 34.1564 92.4208C34.6508 94.38 34.4196 94.2571 34.9792 97.188C36.2201 103.674 38.5761 108.425 39.434 115.049C39.434 115.049 39.6244 116.116 39.8771 117.242C40.5434 120.208 46.0813 130.522 47.1565 131.926" stroke="url(#paint4_linear_524_1712)" stroke-width="2.79069"/>
<defs>
<linearGradient id="paint0_linear_524_1712" x1="212.277" y1="11.3387" x2="212.277" y2="-17.3247" gradientUnits="userSpaceOnUse">
<stop stop-color="#B46A11"/>
<stop offset="0.584524" stop-color="#B66C11"/>
<stop offset="0.779762" stop-color="#BE7412"/>
<stop offset="0.914286" stop-color="#CA8114"/>
<stop offset="1" stop-color="#D78E15"/>
</linearGradient>
<linearGradient id="paint1_linear_524_1712" x1="170.562" y1="-139.44" x2="170.562" y2="-242.462" gradientUnits="userSpaceOnUse">
<stop stop-color="#B46A11"/>
<stop offset="0.0690476" stop-color="#C57B13"/>
<stop offset="0.144048" stop-color="#CF8614"/>
<stop offset="0.215476" stop-color="#D48B15"/>
<stop offset="0.32619" stop-color="#D68E15"/>
<stop offset="0.69881" stop-color="#E7AC18"/>
<stop offset="0.865476" stop-color="#E8AE1A"/>
<stop offset="0.927381" stop-color="#ECB322"/>
<stop offset="0.97381" stop-color="#F2BE30"/>
<stop offset="1" stop-color="#F8C73C"/>
</linearGradient>
<linearGradient id="paint2_linear_524_1712" x1="230.021" y1="-138.105" x2="230.021" y2="-224.892" gradientUnits="userSpaceOnUse">
<stop stop-color="#B46A11"/>
<stop offset="0.0404762" stop-color="#C47B13"/>
<stop offset="0.0857143" stop-color="#CE8514"/>
<stop offset="0.144048" stop-color="#D48B15"/>
<stop offset="0.279762" stop-color="#D68D15"/>
<stop offset="0.34881" stop-color="#D78F15"/>
<stop offset="0.697619" stop-color="#E7AC18"/>
<stop offset="0.865476" stop-color="#E8AE1A"/>
<stop offset="0.927381" stop-color="#ECB322"/>
<stop offset="0.97381" stop-color="#F2BE30"/>
<stop offset="1" stop-color="#F8C73C"/>
</linearGradient>
<linearGradient id="paint3_linear_524_1712" x1="159.615" y1="-39.0029" x2="159.615" y2="-74.9577" gradientUnits="userSpaceOnUse">
<stop stop-color="#B46A11"/>
<stop offset="0.588095" stop-color="#B66C11"/>
<stop offset="0.784524" stop-color="#BE7412"/>
<stop offset="0.920238" stop-color="#CA8114"/>
<stop offset="1" stop-color="#D68D15"/>
</linearGradient>
<linearGradient id="paint4_linear_524_1712" x1="194.838" y1="-5.93719" x2="194.838" y2="-138.411" gradientUnits="userSpaceOnUse">
<stop stop-color="#B46A11"/>
<stop offset="0.188095" stop-color="#B66C11"/>
<stop offset="0.25" stop-color="#BE7412"/>
<stop offset="0.294048" stop-color="#CA8114"/>
<stop offset="0.322619" stop-color="#D68D15"/>
<stop offset="0.697619" stop-color="#E7AC18"/>
<stop offset="0.865476" stop-color="#E8AE1A"/>
<stop offset="0.927381" stop-color="#ECB322"/>
<stop offset="0.97381" stop-color="#F2BE30"/>
<stop offset="1" stop-color="#F8C73C"/>
</linearGradient>
</defs>
</svg>
